<svg width="611" height="611" viewBox="0 0 611 611" fill="none" xmlns="http://www.w3.org/2000/svg">
<path d="M74.212 82.485L90.2446 82.1428L98.3832 82.0084C101.108 82.0084 103.833 82.0084 106.571 82.0084H107.108V82.5583L107.182 96.2325V96.8435H106.571L90.4279 96.6969C85.0267 96.6969 79.6377 96.5624 74.2487 96.4891H73.9065V96.1592C73.9065 93.8374 74.0165 91.54 74.0654 89.2549L74.212 82.485ZM74.212 82.485L74.3831 89.4015C74.3831 91.6744 74.5175 93.9229 74.5419 96.1592L74.212 95.8292C79.601 95.8292 84.99 95.6337 90.3913 95.6337L106.571 95.5482L105.96 96.1592L106.021 82.485L106.571 83.0349C103.894 83.0349 101.243 83.0349 98.5665 82.9616L90.5257 82.8272L74.212 82.485Z" fill="#EBEBEB"/>
<path d="M92.2609 65.2426L108.294 64.9004L116.432 64.766C119.157 64.766 121.894 64.766 124.619 64.766H125.157V65.3159L125.23 78.9901V79.6011H124.644L108.44 79.43C103.039 79.43 97.6499 79.2956 92.2609 79.2223H91.9187V78.8923C91.9187 76.5705 92.0287 74.2732 92.0776 71.988L92.2609 65.2426ZM92.2609 65.2426L92.4319 72.1591C92.4319 74.432 92.5664 76.6805 92.5908 78.9168L92.2609 78.5868C97.6499 78.5868 103.039 78.3913 108.44 78.3913L124.644 78.3058L124.033 78.9168V65.2426L124.583 65.7925C121.919 65.7925 119.255 65.7925 116.579 65.7191L108.538 65.5847L92.2609 65.2426Z" fill="#EBEBEB"/>
<path d="M123.642 240.929L139.675 240.587L147.813 240.453C150.538 240.392 153.275 240.453 156.001 240.38H156.538V240.929L156.612 254.604V255.215H156.001L139.821 255.129C134.42 255.129 129.031 254.995 123.642 254.934H123.3V254.604C123.3 252.282 123.41 249.972 123.459 247.687L123.642 240.929ZM123.642 240.929L123.813 247.834C123.813 250.107 123.947 252.367 123.972 254.604L123.642 254.261C129.031 254.261 134.42 254.066 139.821 254.066L156.001 253.993L155.39 254.604V240.929L155.939 241.467C153.263 241.467 150.611 241.467 147.935 241.467L139.895 241.333L123.642 240.929Z" fill="#EBEBEB"/>
<path d="M141.752 223.687L157.784 223.345L165.923 223.211C168.648 223.211 171.385 223.211 174.11 223.137H174.648V223.687L174.721 237.361V237.972H174.11L157.931 237.887C152.53 237.887 147.141 237.752 141.752 237.691H141.41V237.361C141.41 235.039 141.52 232.73 141.581 230.445L141.752 223.687ZM141.752 223.687L141.923 230.591C141.923 232.864 142.057 235.125 142.082 237.361L141.752 237.068C147.141 237.007 152.53 236.885 157.931 236.872L174.11 236.799L173.499 237.41V223.736L174.049 224.274C171.385 224.274 168.721 224.274 166.045 224.213L158.004 224.078L141.752 223.687Z" fill="#EBEBEB"/>
<path d="M56.2118 65.2426L72.2567 64.9004L80.3341 64.766C83.047 64.766 85.7842 64.766 88.5093 64.766H89.0592V65.3159L89.1203 78.9901V79.6011H88.4971L72.33 79.43C66.941 79.43 61.552 79.2956 56.1507 79.2223H55.8208V78.8923C55.8208 76.5705 55.9308 74.2732 55.9797 71.988L56.2118 65.2426ZM56.2118 65.2426L56.3951 72.1591C56.3951 74.432 56.5296 76.6805 56.554 78.9168L56.2118 78.5868C61.6131 78.5868 67.0021 78.3913 72.3911 78.3913L88.5704 78.3058L87.9594 78.9168L87.9838 65.2426L88.5215 65.7925C85.8576 65.7925 83.2058 65.7925 80.5296 65.7191L72.4889 65.5847L56.2118 65.2426Z" fill="#EBEBEB"/>
<path d="M536.788 362.213L520.755 362.555L512.617 362.702C509.892 362.702 507.167 362.702 504.429 362.763H503.892V362.213L503.818 348.551V347.928H504.429L520.609 348.001C526.01 348.001 531.399 348.135 536.788 348.197H537.13V348.527C537.13 350.836 537.02 353.146 536.971 355.431L536.788 362.213ZM536.788 362.213L536.617 355.309C536.617 353.036 536.482 350.787 536.458 348.551L536.788 348.881C531.399 348.942 526.01 349.076 520.609 349.076L504.429 349.15L505.04 348.551L504.979 362.213L504.429 361.675C507.106 361.675 509.757 361.675 512.433 361.675L520.474 361.822L536.788 362.213Z" fill="#EBEBEB"/>
<path d="M554.849 379.455L538.804 379.798L530.666 379.944C527.941 379.944 525.215 379.944 522.49 380.005H521.94V379.455L521.879 365.781V365.17H522.503L538.682 365.244C544.071 365.244 549.46 365.378 554.861 365.439H555.191V365.757C555.191 368.079 555.081 370.388 555.032 372.673L554.849 379.455ZM554.849 379.455L554.666 372.551C554.666 370.278 554.531 368.03 554.507 365.781L554.849 366.123C549.448 366.184 544.059 366.319 538.67 366.319L522.49 366.392L523.101 365.781L523.016 379.455L522.478 378.918C525.142 378.918 527.794 378.918 530.47 378.979L538.511 379.125L554.849 379.455Z" fill="#EBEBEB"/>
<path d="M106.839 379.455L90.8068 379.798L82.6683 379.944C79.9432 379.944 77.2059 379.944 74.4809 380.005H73.9432V379.455L73.8699 365.781V365.17H74.542L90.7212 365.244C96.1225 365.244 101.512 365.378 106.901 365.439H107.243V365.757C107.243 368.079 107.133 370.388 107.072 372.673L106.839 379.455ZM106.839 379.455L106.668 372.551C106.668 370.278 106.534 368.03 106.509 365.781L106.839 366.123C101.45 366.184 96.0614 366.319 90.6602 366.319L74.542 366.392L75.153 365.781L75.0919 379.455L74.542 378.918C77.2059 378.918 79.8699 378.918 82.5461 378.979L90.5868 379.125L106.839 379.455Z" fill="#EBEBEB"/>
<path d="M504.295 65.2426L520.34 64.9004L528.478 64.766C531.191 64.766 533.928 64.766 536.653 64.766H537.203V65.3159L537.264 78.9901V79.6011H536.653L520.474 79.43C515.085 79.43 509.684 79.2956 504.295 79.2223H503.965V78.8923C503.965 76.5705 504.063 74.2732 504.124 71.988L504.295 65.2426ZM504.295 65.2426L504.466 72.1591C504.527 74.432 504.613 76.6805 504.625 78.9168L504.295 78.5868C509.684 78.5868 515.085 78.3913 520.474 78.3913L536.653 78.3058L536.042 78.9168L536.116 65.2426L536.653 65.7925C533.989 65.7925 531.325 65.7925 528.661 65.7191L520.572 65.5847L504.295 65.2426Z" fill="#EBEBEB"/>
<path d="M550.719 275.903H388.021V48.6967H550.719V275.903ZM392.848 271.076H545.892V53.5236H392.848V271.076Z" fill="#EBEBEB"/>
<path d="M471.778 54.7822H466.951V273.484H471.778V54.7822Z" fill="#EBEBEB"/>
<path d="M555.106 58.4604H383.647V65.1814H555.106V58.4604Z" fill="#EBEBEB"/>
<path d="M555.106 66.0247H383.647V72.7457H555.106V66.0247Z" fill="#EBEBEB"/>
<path d="M555.106 73.5766H383.647V80.2976H555.106V73.5766Z" fill="#EBEBEB"/>
<path d="M555.106 81.1408H383.647V87.8618H555.106V81.1408Z" fill="#EBEBEB"/>
<path d="M555.106 88.705H383.647V95.426H555.106V88.705Z" fill="#EBEBEB"/>
<path d="M555.106 96.2692H383.647V102.99H555.106V96.2692Z" fill="#EBEBEB"/>
<path d="M555.106 103.833H383.647V110.554H555.106V103.833Z" fill="#EBEBEB"/>
<path d="M555.106 111.398H383.647V118.119H555.106V111.398Z" fill="#EBEBEB"/>
<path d="M555.106 118.962H383.647V125.683H555.106V118.962Z" fill="#EBEBEB"/>
<path d="M540.759 57.0918H539.55V187.907H540.759V57.0918Z" fill="#A6A6A6"/>
<path d="M542.299 193.528H538.01L539.085 187.369H541.224L542.299 193.528Z" fill="#A6A6A6"/>
<path d="M545.11 57.0918H543.9V220.901H545.11V57.0918Z" fill="#A6A6A6"/>
<path d="M546.649 225.435H542.36L543.435 219.276H545.574L546.649 225.435Z" fill="#A6A6A6"/>
<path d="M562.597 47.7557H376.156V61.821H562.597V47.7557Z" fill="#DBDBDB"/>
<path d="M188.237 128.408H51.5928V136.522H188.237V128.408Z" fill="#EBEBEB"/>
<path d="M70.0816 136.522H61.9675V163.357H70.0816V136.522Z" fill="#EBEBEB"/>
<path d="M70.0816 136.522H61.9675V144.819H70.0816V136.522Z" fill="#DBDBDB"/>
<path d="M177.862 136.522H169.748V163.357H177.862V136.522Z" fill="#EBEBEB"/>
<path d="M177.862 136.522H169.748V144.819H177.862V136.522Z" fill="#DBDBDB"/>
<path d="M82.3994 128.408V76.6927H69.3729V128.408H82.3994Z" fill="#C7C7C7"/>
<path d="M82.3994 79.6255V73.9432H69.3729V79.6255H82.3994Z" fill="#DBDBDB"/>
<path d="M82.3994 89.0105V86.8964H69.3729V89.0105H82.3994Z" fill="#DBDBDB"/>
<path d="M84.0247 121.626V115.943H69.3851V121.626H84.0247Z" fill="#DBDBDB"/>
<path d="M91.491 128.408V68.0898H82.3871V128.408H91.491Z" fill="#DBDBDB"/>
<path d="M89.6335 96.9657V73.7599H84.1712V96.9657H89.6335Z" fill="#EBEBEB"/>
<path d="M156.223 121.952L113.327 79.5468L106.927 86.0212L149.823 128.426L156.223 121.952Z" fill="#C7C7C7"/>
<path d="M144.916 113.271L128.413 96.9571L124.573 100.842L141.076 117.156L144.916 113.271Z" fill="#DBDBDB"/>
<path d="M106.949 128.42V82.6072H91.4912V128.42H106.949Z" fill="#A6A6A6"/>
<path d="M106.949 123.556V119.292H91.4912V123.556H106.949Z" fill="#C7C7C7"/>
<path d="M106.949 116.493V114.831H91.4912V116.493H106.949Z" fill="#C7C7C7"/>
<path d="M69.3728 128.432V85.3689H58.6925V128.432H69.3728Z" fill="#A6A6A6"/>
<path d="M69.3728 123.85V119.842H58.6925V123.85H69.3728Z" fill="#C7C7C7"/>
<path d="M69.3728 98.2366V94.2284H58.6925V98.2366H69.3728Z" fill="#C7C7C7"/>
<path d="M69.3728 102.55V100.998H58.6925V102.55H69.3728Z" fill="#C7C7C7"/>
<path d="M551.513 545.733C551.513 563.073 441.362 577.138 305.5 577.138C169.638 577.138 59.4871 563.073 59.4871 545.733C59.4871 528.393 169.638 514.328 305.5 514.328C441.362 514.328 551.513 528.393 551.513 545.733Z" fill="#EBEBEB"/>
<path d="M488.971 399.154C488.971 399.154 468.698 394.559 457.59 384.319C446.482 374.079 440.262 355.736 440.262 355.736C447.969 357.214 455.566 359.211 463.004 361.712C465.794 364.591 468.116 367.89 469.883 371.488C470.058 369.174 470.058 366.849 469.883 364.535C472.48 365.654 474.911 367.126 477.105 368.91C486.356 376.926 488.971 399.154 488.971 399.154Z" fill="#58A264"/>
<path d="M452.922 364.645C450.16 362.739 447.35 360.893 444.6 358.963C444.429 358.853 444.6 358.584 444.759 358.694C449.989 361.81 455.134 365.146 460.12 368.641C461.855 369.863 463.566 371.122 465.252 372.417L464.898 371.818C464.287 370.804 463.676 369.802 463.004 368.8C461.734 366.768 460.295 364.847 458.702 363.056C458.641 362.995 458.702 362.897 458.8 362.959C460.376 364.779 461.953 366.625 463.395 368.519C464.079 369.435 464.714 370.388 465.325 371.354C465.643 371.867 465.949 372.368 466.23 372.893L466.535 373.407C469.162 375.472 471.716 377.623 474.148 379.883C475.655 381.284 477.109 382.735 478.511 384.234C477.716 381.79 477.032 379.346 476.128 376.902C476.128 376.816 476.238 376.779 476.262 376.902C477.142 379.431 478.107 381.985 478.792 384.588C480.344 386.262 481.835 387.997 483.228 389.818L483.154 389.488C482.922 388.523 482.69 387.57 482.433 386.629C481.945 384.796 481.395 382.963 480.784 381.166C479.615 377.434 477.767 373.95 475.334 370.889C475.272 370.816 475.334 370.718 475.431 370.792C479.23 375.53 481.889 381.078 483.203 387.008C483.423 387.863 483.619 388.731 483.814 389.598C483.924 390.063 484.046 390.527 484.12 391.003C484.731 391.834 485.342 392.665 485.916 393.521C489.358 398.81 492.225 404.45 494.47 410.348C497.018 416.961 499.205 423.709 501.02 430.56C501.012 430.581 500.998 430.6 500.98 430.613C500.961 430.626 500.939 430.633 500.916 430.633C500.893 430.633 500.871 430.626 500.852 430.613C500.834 430.6 500.82 430.581 500.812 430.56C496.841 418.694 492.796 406.657 486.002 396.063C484.569 393.822 483.023 391.656 481.37 389.574C478.011 389.359 474.696 388.701 471.509 387.619C468.032 386.44 464.716 384.835 461.635 382.84C459.879 381.654 458.187 380.378 456.564 379.016C456.553 379.012 456.543 379.005 456.535 378.997C456.527 378.988 456.521 378.978 456.518 378.967C456.515 378.956 456.514 378.944 456.516 378.933C456.519 378.921 456.523 378.911 456.53 378.902C456.538 378.892 456.547 378.885 456.557 378.88C456.568 378.875 456.579 378.873 456.591 378.873C456.602 378.874 456.614 378.877 456.624 378.882C456.634 378.888 456.643 378.896 456.649 378.906C459.482 381.193 462.61 383.087 465.949 384.539C469.225 386.043 472.655 387.19 476.177 387.961C477.668 388.291 479.195 388.535 480.71 388.743C478.836 386.432 476.841 384.221 474.735 382.12C474.05 381.435 473.342 380.775 472.633 380.115C470.27 378.463 467.763 377.027 465.142 375.826C461.818 374.213 458.543 372.515 455.256 370.84C453.399 369.9 451.59 368.934 449.696 368.018C449.61 368.018 449.696 367.871 449.769 367.908C453.093 369.521 456.478 371.024 459.839 372.563C463.199 374.103 466.217 375.472 469.248 377.17L469.639 377.403C466.89 374.959 464.042 372.735 461.085 370.535C458.421 368.555 455.696 366.6 452.922 364.645Z" fill="#263238"/>
<path d="M454.083 375.154C455.733 375.875 457.407 376.51 459.044 377.28C460.682 378.05 462.307 378.979 463.932 379.92C463.94 379.924 463.946 379.929 463.951 379.936C463.956 379.942 463.96 379.95 463.962 379.958C463.965 379.965 463.965 379.974 463.964 379.982C463.963 379.99 463.961 379.998 463.957 380.005C463.953 380.013 463.947 380.019 463.941 380.024C463.934 380.029 463.927 380.033 463.919 380.035C463.911 380.038 463.903 380.038 463.895 380.037C463.886 380.036 463.879 380.034 463.871 380.03C462.258 379.26 460.621 378.539 458.983 377.732C457.346 376.926 455.721 376.022 454.034 375.288C453.961 375.154 453.998 375.069 454.083 375.154Z" fill="#263238"/>
<path d="M554.788 296.946C551.025 301.773 548.886 307.668 548.678 313.785C548.617 315.606 548.898 318.148 549.118 321.117C544.056 324.054 539.571 327.889 535.884 332.433C539.931 330.081 544.579 328.968 549.253 329.231C549.148 331.284 548.891 333.327 548.483 335.341C545.548 335.35 542.644 335.927 539.929 337.04C542.59 337.012 545.228 337.536 547.676 338.58C544.01 350.079 533.33 361.895 503.684 366.906C500.544 352.803 502.401 338.047 508.939 325.162C517.847 307.651 554.788 296.946 554.788 296.946Z" fill="#58A264"/>
<path d="M493.444 416.079C493.957 411.191 494.597 406.303 495.362 401.415C496.863 391.642 498.858 381.951 501.338 372.38C502.504 367.888 503.936 363.468 505.627 359.146C505.542 358.359 505.505 357.567 505.517 356.775C505.517 355.822 505.517 354.869 505.517 353.916C505.517 352.022 505.627 350.128 505.786 348.233C506.087 344.479 506.696 340.756 507.607 337.101C508.157 334.987 508.829 332.91 509.403 330.82C509.409 330.807 509.418 330.796 509.43 330.788C509.442 330.78 509.456 330.776 509.47 330.776C509.485 330.776 509.499 330.78 509.51 330.788C509.522 330.796 509.532 330.807 509.538 330.82C508.548 334.467 507.813 338.179 507.338 341.928C506.813 345.619 506.482 349.335 506.348 353.06C506.348 354.075 506.287 355.101 506.287 356.115C506.287 356.555 506.287 356.995 506.287 357.423C507.747 353.881 509.416 350.429 511.285 347.085C514.299 341.783 517.693 336.707 521.44 331.895C521.447 331.333 521.53 330.774 521.684 330.233C521.819 329.573 521.965 328.914 522.112 328.241C522.417 326.897 522.76 325.541 523.126 324.209C523.859 321.52 524.837 318.918 525.68 316.266C525.686 316.253 525.695 316.242 525.707 316.234C525.719 316.226 525.733 316.222 525.747 316.222C525.762 316.222 525.776 316.226 525.788 316.234C525.799 316.242 525.809 316.253 525.815 316.266C525.032 318.893 524.507 321.618 523.908 324.294C523.603 325.614 523.322 326.934 523.028 328.266C522.882 328.926 522.735 329.586 522.601 330.246C522.601 330.246 522.601 330.356 522.601 330.404C523.798 328.889 525.02 327.398 526.267 325.932C531.925 319.284 538.132 313.15 544.389 307.076C545.159 306.319 545.941 305.598 546.723 304.852C546.723 304.852 546.882 304.852 546.821 304.962C540.845 311.195 534.967 317.488 529.395 324.087C528.063 325.663 526.768 327.252 525.485 328.852L527.513 327.508C529.236 326.384 530.984 325.284 532.78 324.282C534.576 323.28 536.446 322.278 538.242 321.362C540.039 320.445 542.177 319.651 544.022 318.588C544.096 318.588 544.169 318.673 544.083 318.71C542.209 319.575 540.399 320.576 538.67 321.704C536.861 322.779 535.065 323.855 533.293 324.979C531.521 326.103 529.798 327.178 528.063 328.303C526.621 329.244 525.204 330.27 523.7 331.125C520.262 335.545 517.087 340.164 514.193 344.958C512.406 347.981 510.774 351.093 509.305 354.282L510.368 353.818L513.094 352.596C514.829 351.826 516.588 351.068 518.336 350.311C521.66 348.857 525.045 347.537 528.307 345.948C530.147 345.081 531.926 344.093 533.635 342.991C533.709 342.991 533.77 342.991 533.696 343.113C527.586 347.305 520.792 350.25 514.071 353.231L511.151 354.527C510.344 354.881 509.538 355.272 508.707 355.59C506.711 360.048 505.033 364.642 503.684 369.337C501.034 378.782 498.881 388.36 497.232 398.03C495.533 407.72 494.385 417.472 493.493 427.272C493.383 428.494 493.273 429.716 493.126 430.938C493.11 431.029 493.062 431.11 492.992 431.169C492.922 431.228 492.833 431.261 492.741 431.261C492.649 431.261 492.561 431.228 492.49 431.169C492.42 431.11 492.372 431.029 492.356 430.938C492.466 426.001 492.918 421.028 493.444 416.079Z" fill="#263238"/>
<path d="M511.493 334.156C512.03 331.138 512.837 328.193 513.643 325.235C513.643 325.15 513.802 325.235 513.778 325.235C513.032 328.132 512.495 331.089 511.945 334.022C511.395 336.954 510.906 340.034 510.478 343.052C510.478 343.052 510.393 343.113 510.393 343.052C510.59 340.068 510.957 337.098 511.493 334.156Z" fill="#263238"/>
<path d="M524.238 342.331C526.303 340.964 528.459 339.739 530.69 338.665C531.766 338.115 532.865 337.578 533.953 337.052C535.041 336.527 536.263 336.05 537.387 335.488C537.46 335.488 537.521 335.561 537.387 335.598C536.299 336.148 535.273 336.82 534.21 337.382L530.91 339.191C528.747 340.351 526.609 341.635 524.336 342.588C524.31 342.58 524.286 342.567 524.267 342.549C524.247 342.531 524.232 342.509 524.222 342.484C524.213 342.459 524.209 342.432 524.212 342.406C524.215 342.379 524.224 342.354 524.238 342.331Z" fill="#263238"/>
<path opacity="0.1" d="M488.605 364.034C488.605 364.034 469.847 359.549 461.232 346.926C453.008 334.914 450.344 314.421 450.136 312.612C450.466 314.274 454.34 332.164 467.11 340.523C476.898 346.95 486.356 352.205 488.605 364.034Z" fill="#263238"/>
<path d="M488.605 364.034C488.605 364.034 469.847 359.549 461.232 346.926C453.008 334.914 450.344 314.421 450.136 312.612C450.13 312.572 450.13 312.53 450.136 312.49C450.136 312.49 459.13 325.284 468.588 328.547C478.046 331.81 491.317 343.125 488.605 364.034Z" fill="#58A264"/>
<path d="M453.435 319.578C455.119 323.026 457.059 326.343 459.24 329.5C461.425 332.496 464.021 335.17 466.951 337.443C469.505 339.472 472.193 341.305 474.771 343.284V343.187C474.283 342.478 473.769 341.769 473.232 341.097C472.156 339.716 470.983 338.421 469.798 337.138C467.476 334.608 465.093 332.127 463.004 329.39C461.838 327.867 460.831 326.229 459.997 324.502C459.997 324.417 460.083 324.38 460.12 324.502C463.162 330.844 469.248 334.901 473.562 340.254C474.175 341.015 474.75 341.806 475.285 342.624C475.715 343.219 476.08 343.858 476.372 344.531C478.748 346.436 480.897 348.61 482.776 351.007C482.613 349.769 482.359 348.543 482.018 347.341C481.584 345.67 480.914 344.069 480.026 342.588C480.026 342.514 480.099 342.429 480.148 342.514C481.054 343.999 481.787 345.581 482.336 347.231C482.732 348.546 482.962 349.905 483.02 351.276C483.949 352.537 484.798 353.856 485.562 355.223C485.476 354.82 485.403 354.417 485.33 354.001C484.951 352.132 484.547 350.262 484.108 348.417C483.222 344.661 481.697 341.085 479.598 337.846C479.537 337.773 479.598 337.7 479.708 337.773C481.86 340.962 483.543 344.444 484.706 348.111C485.305 349.956 485.782 351.777 486.209 353.72C486.417 354.637 486.6 355.565 486.771 356.494C486.869 356.971 486.967 357.472 487.053 357.961C488.91 362.048 490.359 366.309 491.378 370.682C493.217 378.494 494.552 386.417 495.374 394.401C496.343 402.759 496.776 411.172 496.67 419.586C496.67 420.649 496.584 421.7 496.535 422.751C496.535 423.02 496.108 423.069 496.095 422.751C495.912 418.584 495.802 414.417 495.558 410.262C495.313 406.107 494.947 401.953 494.507 397.798C493.651 389.646 492.345 381.549 490.596 373.541C489.069 366.686 487.101 359.781 483.35 353.769C481.487 350.777 479.207 348.066 476.58 345.716C473.953 343.358 471.081 341.292 468.307 339.105C465.496 336.966 462.945 334.505 460.706 331.773C458.417 328.743 456.42 325.502 454.743 322.095L453.399 319.553C453.276 319.578 453.362 319.504 453.435 319.578Z" fill="#263238"/>
<path d="M456.674 322.339C457.908 324.87 459.304 327.319 460.853 329.671C460.853 329.671 460.853 329.781 460.767 329.671C459.156 327.349 457.741 324.897 456.539 322.339C456.503 322.302 456.637 322.254 456.674 322.339Z" fill="#263238"/>
<path d="M557.452 355.736C557.452 355.736 557.758 382.401 541.81 390.087C525.863 397.773 517.37 391.382 506.495 393.961C506.91 393.325 514.645 382.205 526.939 379.15C539.599 375.985 553.566 366.844 557.452 355.736Z" fill="#58A264"/>
<path opacity="0.1" d="M557.452 355.736C557.452 355.736 557.758 382.401 541.81 390.087C525.863 397.773 517.37 391.382 506.495 393.961C512.219 391.229 518.34 389.419 524.629 388.596C534.686 387.374 553.884 380.836 557.452 355.736Z" fill="black"/>
<path d="M505.444 394.437C507.337 392.702 509.474 391.253 511.786 390.136C512.116 389.977 512.47 389.842 512.825 389.696C512.987 389.481 513.162 389.277 513.35 389.085C513.839 388.584 514.328 388.107 514.853 387.655C515.856 386.794 516.931 386.022 518.067 385.345C520.707 383.794 523.603 382.706 526.303 381.264C526.377 381.264 526.45 381.337 526.364 381.386C525.032 382.071 523.737 382.84 522.442 383.598C521.146 384.356 519.888 385.04 518.654 385.834C517.549 386.546 516.496 387.334 515.501 388.193C515.22 388.437 514.951 388.706 514.682 388.975C516.446 388.383 518.246 387.905 520.071 387.545C522.992 386.959 525.937 386.543 528.857 385.92C530.285 385.614 531.697 385.235 533.085 384.783C534.405 383.708 535.725 382.657 536.984 381.496C538.498 380.106 539.877 378.576 541.102 376.926C541.102 376.865 541.273 376.926 541.212 376.999C539.28 379.616 537.094 382.035 534.686 384.221C535.371 383.952 536.043 383.671 536.715 383.366C542.194 380.913 546.894 377.003 550.303 372.062C550.303 371.989 550.474 372.062 550.426 372.136C547.526 376.375 543.782 379.97 539.428 382.694C537.249 384.055 534.92 385.158 532.487 385.981C529.661 386.856 526.778 387.538 523.859 388.022C521 388.486 518.178 389.155 515.415 390.026C512.872 390.888 510.48 392.146 508.328 393.753C504.269 396.907 500.998 400.961 498.772 405.594C495.914 411.763 494.133 418.376 493.505 425.146C493.505 425.427 493.041 425.427 493.053 425.146C493.798 413.879 496.804 402.209 505.444 394.437Z" fill="#263238"/>
<path d="M523.945 385.737C524.776 384.493 525.901 383.473 527.22 382.767C528.732 381.978 530.06 380.879 531.118 379.541C531.118 379.468 531.289 379.541 531.228 379.614C530.271 380.833 529.109 381.875 527.794 382.694C526.347 383.465 525.071 384.521 524.042 385.798C523.994 385.859 523.896 385.798 523.945 385.737Z" fill="#263238"/>
<path d="M515.476 414.111L514.755 428.775L512.531 473.562H479.085L476.861 428.775L476.14 414.111H515.476Z" fill="#37474F"/>
<path d="M515.476 414.111L514.755 428.775H476.861L476.14 414.111H515.476Z" fill="#263238"/>
<path d="M517.823 407.989H473.794V421.981H517.823V407.989Z" fill="#37474F"/>
<path d="M51.5928 473.562L115.063 473.268L178.546 473.158L305.5 472.951L432.454 473.158L495.936 473.268L559.407 473.562L495.936 473.867L432.454 473.977L305.5 474.173L178.546 473.965L115.063 473.867L51.5928 473.562Z" fill="#263238"/>
<path d="M458.519 506.226V80.3221C458.519 71.6227 451.467 64.5705 442.767 64.5705L168.245 64.5705C159.546 64.5705 152.493 71.6227 152.493 80.3221V506.226C152.493 514.925 159.546 521.977 168.245 521.977H442.767C451.467 521.977 458.519 514.925 458.519 506.226Z" fill="#263238"/>
<path d="M445.602 96.5869H165.752V490.242H445.602V96.5869Z" fill="white"/>
<path d="M338.787 84.0003V82.3017C338.787 81.4581 338.103 80.7742 337.26 80.7742H273.716C272.872 80.7742 272.188 81.4581 272.188 82.3017V84.0003C272.188 84.8439 272.872 85.5278 273.716 85.5278H337.26C338.103 85.5278 338.787 84.8439 338.787 84.0003Z" fill="#37474F"/>
<path d="M305.5 514.328C310.258 514.328 314.115 510.47 314.115 505.712C314.115 500.955 310.258 497.097 305.5 497.097C300.742 497.097 296.885 500.955 296.885 505.712C296.885 510.47 300.742 514.328 305.5 514.328Z" fill="#37474F"/>
<path d="M402.49 150.648H208.876V153.373H402.49V150.648Z" fill="#EBEBEB"/>
<path d="M402.49 159.104H208.876V161.829H402.49V159.104Z" fill="#EBEBEB"/>
<path d="M402.49 416.616H208.876V419.342H402.49V416.616Z" fill="#EBEBEB"/>
<path d="M402.49 425.073H208.876V427.798H402.49V425.073Z" fill="#EBEBEB"/>
<path d="M255.948 454.413C260.888 454.413 264.893 450.408 264.893 445.468C264.893 440.528 260.888 436.523 255.948 436.523C251.008 436.523 247.003 440.528 247.003 445.468C247.003 450.408 251.008 454.413 255.948 454.413Z" fill="#FB8500"/>
<path d="M256.095 450.686L250.767 445.297L252.563 443.525L255.667 446.678L262.143 436.535L264.257 437.892L256.095 450.686Z" fill="white"/>
<path d="M278.347 445.395C278.353 444.752 278.469 444.116 278.689 443.513C278.916 442.898 279.26 442.333 279.704 441.851C280.175 441.317 280.757 440.893 281.409 440.609C282.062 440.324 282.768 440.185 283.48 440.201C284.337 440.186 285.182 440.406 285.924 440.836C286.587 441.222 287.126 441.79 287.476 442.474L285.948 443.586C285.826 443.31 285.657 443.058 285.447 442.841C285.263 442.653 285.053 442.493 284.824 442.364C284.599 442.25 284.361 442.164 284.115 442.107C283.878 442.059 283.636 442.035 283.394 442.034C282.935 442.022 282.481 442.127 282.074 442.34C281.706 442.532 281.385 442.803 281.133 443.134C280.882 443.468 280.691 443.845 280.571 444.246C280.295 445.079 280.295 445.979 280.571 446.812C280.707 447.222 280.919 447.604 281.195 447.936C281.464 448.256 281.792 448.521 282.16 448.718C282.538 448.912 282.957 449.012 283.382 449.012C283.629 449.008 283.875 448.975 284.115 448.914C284.368 448.861 284.611 448.77 284.836 448.645C285.068 448.511 285.282 448.346 285.472 448.156C285.672 447.941 285.833 447.693 285.948 447.423L287.598 448.376C287.434 448.767 287.193 449.12 286.889 449.415C286.582 449.714 286.232 449.966 285.85 450.16C285.073 450.578 284.204 450.796 283.321 450.796C282.614 450.801 281.915 450.642 281.28 450.331C280.677 450.03 280.138 449.615 279.691 449.109C279.247 448.605 278.895 448.026 278.653 447.399C278.421 446.757 278.317 446.076 278.347 445.395Z" fill="#FB8500"/>
<path d="M293.378 450.747C292.66 450.758 291.949 450.603 291.3 450.295C290.086 449.707 289.145 448.674 288.673 447.411C288.431 446.792 288.306 446.133 288.306 445.468C288.306 444.785 288.439 444.108 288.697 443.476C288.946 442.854 289.306 442.282 289.761 441.79C290.22 441.283 290.771 440.868 291.386 440.568C292.027 440.28 292.723 440.134 293.427 440.14C294.138 440.127 294.843 440.286 295.48 440.604C296.089 440.901 296.634 441.316 297.08 441.826C297.549 442.34 297.918 442.937 298.168 443.586C298.408 444.201 298.533 444.856 298.535 445.517C298.535 446.2 298.402 446.876 298.144 447.509C297.904 448.129 297.547 448.697 297.093 449.183C296.635 449.667 296.087 450.057 295.48 450.331C294.82 450.628 294.101 450.771 293.378 450.747ZM290.359 445.468C290.361 445.912 290.431 446.353 290.567 446.775C290.696 447.178 290.894 447.554 291.154 447.887C291.419 448.206 291.742 448.472 292.107 448.669C292.506 448.865 292.946 448.962 293.39 448.951C293.843 448.959 294.291 448.859 294.697 448.657C295.065 448.459 295.389 448.189 295.651 447.863C295.908 447.524 296.106 447.144 296.237 446.739C296.358 446.342 296.424 445.931 296.433 445.517C296.434 445.072 296.36 444.629 296.213 444.209C296.083 443.805 295.88 443.428 295.614 443.097C295.361 442.77 295.034 442.506 294.661 442.327C294.281 442.139 293.863 442.043 293.439 442.046C292.99 442.038 292.545 442.138 292.143 442.34C291.767 442.525 291.44 442.797 291.19 443.134C290.931 443.467 290.732 443.844 290.604 444.246C290.461 444.638 290.378 445.05 290.359 445.468Z" fill="#FB8500"/>
<path d="M302.042 444.002V450.674H300.025V440.262H301.59L307.015 447.093V440.274H309.044V450.674H307.394L302.042 444.002Z" fill="#FB8500"/>
<path d="M311.207 450.674V440.262H318.209V442.034H313.235V444.722H317.366V446.36H313.235V450.674H311.207Z" fill="#FB8500"/>
<path d="M319.626 450.674V440.262H321.655V450.674H319.626Z" fill="#FB8500"/>
<path d="M323.83 450.674V440.262H328.437C328.897 440.258 329.353 440.358 329.769 440.555C330.163 440.757 330.519 441.026 330.82 441.35C331.107 441.681 331.338 442.056 331.504 442.462C331.663 442.85 331.746 443.264 331.749 443.684C331.76 444.334 331.586 444.974 331.248 445.529C330.935 446.073 330.455 446.501 329.879 446.751L332.25 450.674H329.94L327.814 447.179H325.822V450.674H323.83ZM325.859 445.407H328.4C328.581 445.411 328.759 445.365 328.914 445.272C329.076 445.185 329.218 445.064 329.329 444.918C329.456 444.758 329.551 444.576 329.61 444.38C329.684 444.168 329.721 443.945 329.72 443.72C329.718 443.491 329.677 443.264 329.598 443.048C329.526 442.851 329.418 442.669 329.28 442.511C329.153 442.366 328.999 442.245 328.828 442.156C328.665 442.074 328.485 442.032 328.303 442.034H325.859V445.407Z" fill="#FB8500"/>
<path d="M342.062 450.674V443.782L339.386 448.914H338.286L335.598 443.782V450.674H333.606V440.262H335.781L338.861 446.189L341.964 440.262H344.127V450.674H342.062Z" fill="#FB8500"/>
<path d="M353.488 448.902V450.674H346.254V440.262H353.353V442.034H348.27V444.478H352.657V446.128H348.27V448.841L353.488 448.902Z" fill="#FB8500"/>
<path d="M355.077 450.674V440.262H358.853C359.619 440.243 360.381 440.385 361.089 440.678C361.702 440.925 362.253 441.305 362.702 441.79C363.135 442.267 363.464 442.828 363.667 443.439C364.115 444.792 364.115 446.253 363.667 447.606C363.444 448.218 363.091 448.775 362.634 449.239C362.176 449.703 361.624 450.063 361.016 450.295C360.338 450.557 359.616 450.686 358.889 450.674H355.077ZM361.944 445.456C361.954 444.987 361.883 444.52 361.737 444.075C361.616 443.674 361.412 443.303 361.138 442.987C360.874 442.681 360.544 442.439 360.172 442.279C359.752 442.112 359.304 442.029 358.853 442.034H357.093V448.902H358.853C359.311 448.906 359.764 448.815 360.185 448.633C360.556 448.468 360.886 448.222 361.15 447.912C361.416 447.588 361.616 447.214 361.737 446.812C361.883 446.375 361.953 445.916 361.944 445.456Z" fill="#FB8500"/>
<path d="M382.046 397.639H228.954V268.131L305.488 219.52L382.046 268.131V397.639Z" fill="#FFB703"/>
<path opacity="0.2" d="M382.046 397.639H228.954V268.131L305.488 219.52L382.046 268.131V397.639Z" fill="black"/>
<path d="M373.406 213.361H237.581V387.728H373.406V213.361Z" fill="#EBEBEB"/>
<path d="M297.227 317.683L266.127 286.205L276.575 275.879L294.746 294.27L332.482 235.101L344.873 242.995L297.227 317.683Z" fill="#FFB703"/>
<path d="M382.046 300.612V397.639H228.954V300.612C235.528 304.278 241.993 308.237 248.506 312.05C255.019 315.863 261.471 319.822 267.911 323.781C275.084 328.144 282.257 332.592 289.406 337.064L289.638 336.93C289.565 336.93 289.516 337.052 289.455 337.089C294.799 340.388 300.148 343.708 305.5 347.048C310.828 343.688 316.192 340.303 321.545 336.991C321.484 336.991 321.435 336.881 321.362 336.832C321.434 336.882 321.512 336.923 321.594 336.954C328.738 332.498 335.903 328.066 343.089 323.659C349.533 319.724 355.993 315.822 362.47 311.952C369.044 308.176 375.472 304.278 382.046 300.612Z" fill="#FFB703"/>
<g opacity="0.2">
<path d="M382.046 300.612C375.863 304.95 369.569 309.166 363.337 313.394C357.105 317.622 350.763 321.753 344.433 325.895C337.834 330.221 331.223 334.506 324.6 338.751L324.001 339.166L306.368 350.409L305.488 350.934L304.632 350.409L287.023 339.142L286.4 338.751C279.761 334.498 273.141 330.205 266.543 325.871C260.237 321.753 253.944 317.573 247.663 313.394C241.382 309.215 235.137 304.889 228.954 300.612C235.528 304.278 241.993 308.237 248.506 312.05C255.019 315.863 261.471 319.822 267.911 323.781C275.084 328.144 282.257 332.592 289.406 337.064C294.783 340.38 300.148 343.708 305.5 347.048C310.828 343.688 316.192 340.303 321.545 336.991C328.689 332.535 335.854 328.103 343.04 323.696C349.484 319.761 355.944 315.859 362.421 311.989C369.044 308.176 375.472 304.278 382.046 300.612Z" fill="black"/>
<path d="M289.614 336.869C289.541 336.869 289.492 336.991 289.431 337.028L286.987 339.081C283.149 342.319 279.215 345.423 275.219 348.441C270.331 352.107 265.357 355.773 260.347 359.268C255.337 362.763 250.253 366.185 245.072 369.496C239.891 372.808 234.685 376.046 229.284 379.016C233.927 374.946 238.754 371.146 243.63 367.455C248.506 363.765 253.516 360.123 258.502 356.616C263.487 353.109 268.62 349.675 273.789 346.364C277.907 343.724 282.099 341.121 286.363 338.69C287.353 338.115 288.343 337.565 289.357 337.003L289.614 336.869Z" fill="black"/>
<path d="M381.679 379.016C376.278 376.046 371.036 372.808 365.891 369.496C360.747 366.185 355.602 362.738 350.592 359.268C345.582 355.798 340.596 352.156 335.72 348.441C331.749 345.423 327.814 342.331 324.001 339.105L321.557 337.028C321.496 337.028 321.447 336.918 321.374 336.869C321.446 336.919 321.524 336.96 321.606 336.991C322.62 337.565 323.61 338.115 324.6 338.69C328.865 341.134 333.032 343.724 337.174 346.364C342.343 349.675 347.402 353.121 352.437 356.616C357.472 360.111 362.433 363.728 367.309 367.455C372.185 371.183 377.036 374.946 381.679 379.016Z" fill="black"/>
</g>
<path d="M240.001 205.052C239.186 198.335 239.186 191.544 240.001 184.828C240.815 191.544 240.815 198.335 240.001 205.052Z" fill="#263238"/>
<path d="M231.398 208.265C228.719 206.199 226.184 203.954 223.809 201.544C221.397 199.177 219.152 196.645 217.088 193.968C222.414 198.142 227.219 202.943 231.398 208.265Z" fill="#263238"/>
<path d="M227.597 216.612C224.243 217.046 220.862 217.251 217.479 217.223C214.101 217.26 210.724 217.06 207.373 216.624C210.723 216.183 214.1 215.979 217.479 216.013C220.862 215.981 224.242 216.181 227.597 216.612Z" fill="#263238"/>
<path d="M230.811 225.202C226.633 230.525 221.833 235.329 216.514 239.512C220.683 234.178 225.484 229.369 230.811 225.19V225.202Z" fill="#263238"/>
<path d="M370.082 205.052C369.658 201.696 369.458 198.316 369.484 194.933C369.459 191.555 369.668 188.178 370.107 184.828C370.922 191.544 370.922 198.335 370.107 205.052H370.082Z" fill="#263238"/>
<path d="M378.686 208.265C382.864 202.943 387.669 198.142 392.995 193.968C390.932 196.645 388.686 199.177 386.274 201.544C383.899 203.954 381.364 206.199 378.686 208.265Z" fill="#263238"/>
<path d="M382.486 216.612C385.841 216.181 389.222 215.981 392.604 216.013C395.983 215.979 399.36 216.183 402.71 216.624C399.36 217.061 395.983 217.261 392.604 217.223C389.221 217.251 385.841 217.046 382.486 216.612Z" fill="#263238"/>
<path d="M379.272 225.202C384.598 229.377 389.399 234.182 393.569 239.512C390.895 237.441 388.364 235.191 385.993 232.779C383.581 230.411 381.336 227.879 379.272 225.202Z" fill="#263238"/>
<path d="M206.873 558.601C204.233 559.456 129.043 558.478 126.221 556.621C125.133 555.937 124.632 544.975 124.412 531.704V531.289C124.412 528.564 124.326 525.741 124.314 522.894C124.314 522.503 124.314 522.112 124.314 521.672L127.98 482.666L178.278 483.167L173.304 521.806V523.334L172.999 531.326V532.157C172.999 532.157 201.618 545.403 204.526 547.774C207.435 550.144 209.5 557.77 206.873 558.601Z" fill="#F7A9A0"/>
<path d="M206.873 558.601C204.233 559.456 129.043 558.479 126.221 556.621C125.133 555.937 124.632 544.975 124.412 531.704V531.289C124.412 528.564 124.326 525.741 124.314 522.894C124.314 522.503 124.314 522.112 124.314 521.672L173.292 521.806V523.334L172.986 531.326V532.157C172.986 532.157 201.606 545.403 204.514 547.774C207.422 550.144 209.5 557.77 206.873 558.601Z" fill="#EBEBEB"/>
<path d="M207.092 558.784C204.428 559.639 128.554 558.918 125.683 557.061C124.583 556.364 124.045 545.305 123.776 531.924L172.656 532.254C172.656 532.254 201.581 545.525 204.526 547.896C207.471 550.267 209.744 557.916 207.092 558.784Z" fill="#FB8500"/>
<path d="M206.029 555.741C193.32 555.301 141.984 554.751 129.385 555.289C129.288 555.289 129.288 555.362 129.385 555.375C141.984 556.071 193.308 556.206 206.029 555.949C206.298 555.937 206.298 555.741 206.029 555.741Z" fill="#263238"/>
<path d="M199.699 545.122C198.286 545.075 196.879 545.319 195.564 545.841C194.25 546.362 193.058 547.149 192.062 548.153C190.262 549.954 189.222 552.377 189.153 554.922C189.153 554.996 189.3 554.996 189.312 554.922C189.767 552.408 191.025 550.108 192.898 548.37C194.771 546.631 197.158 545.547 199.699 545.281C199.712 545.286 199.726 545.288 199.74 545.287C199.754 545.285 199.767 545.28 199.779 545.272C199.79 545.264 199.8 545.254 199.806 545.242C199.813 545.229 199.816 545.215 199.816 545.201C199.816 545.188 199.813 545.174 199.806 545.161C199.8 545.149 199.79 545.139 199.779 545.131C199.767 545.123 199.754 545.118 199.74 545.116C199.726 545.115 199.712 545.117 199.699 545.122Z" fill="#263238"/>
<path d="M177.618 533.574C172.522 533.452 166.62 535.187 163.406 539.318C163.284 539.489 163.516 539.66 163.663 539.574C168.138 537.288 172.845 535.486 177.703 534.197C177.777 534.176 177.84 534.13 177.882 534.065C177.924 534.001 177.941 533.924 177.931 533.849C177.92 533.773 177.883 533.703 177.826 533.653C177.768 533.602 177.694 533.575 177.618 533.574Z" fill="#263238"/>
<path d="M181.528 535.138C176.445 535.016 170.53 536.764 167.316 540.894C167.194 541.053 167.426 541.224 167.573 541.151C172.047 538.857 176.754 537.051 181.614 535.761C181.687 535.74 181.751 535.694 181.793 535.63C181.834 535.566 181.852 535.489 181.841 535.413C181.831 535.337 181.793 535.268 181.736 535.217C181.678 535.167 181.605 535.139 181.528 535.138Z" fill="#263238"/>
<path d="M185.451 536.702C180.355 536.592 174.453 538.328 171.239 542.458C171.117 542.617 171.337 542.8 171.495 542.715C175.968 540.43 180.671 538.628 185.524 537.338C185.593 537.312 185.651 537.264 185.689 537.201C185.727 537.138 185.743 537.064 185.735 536.992C185.726 536.919 185.694 536.851 185.642 536.798C185.591 536.746 185.523 536.712 185.451 536.702Z" fill="#263238"/>
<path d="M189.41 538.279C184.326 538.157 178.412 539.904 175.198 544.034C175.076 544.193 175.308 544.364 175.455 544.291C179.902 542.003 184.58 540.197 189.41 538.902C189.482 538.888 189.547 538.849 189.594 538.792C189.64 538.735 189.666 538.664 189.666 538.59C189.666 538.517 189.64 538.446 189.594 538.389C189.547 538.332 189.482 538.293 189.41 538.279Z" fill="#263238"/>
<path d="M132.746 543.24C127.027 543.24 126.966 552.075 132.746 552.112C138.526 552.149 138.465 543.277 132.746 543.24Z" fill="white"/>
<path d="M183.3 520.034C180.746 517.871 177.471 519.936 175.87 522.136C173.161 525.966 171.508 530.442 171.08 535.114C171.08 535.211 171.153 535.26 171.239 535.26C171.257 535.356 171.298 535.446 171.358 535.523C171.418 535.599 171.496 535.66 171.584 535.701C171.673 535.742 171.769 535.761 171.867 535.756C171.964 535.752 172.059 535.724 172.143 535.676C175.809 533.232 180.001 531.008 182.787 527.501C184.4 525.46 185.671 522.087 183.3 520.034ZM176.946 530.8C175.186 532.022 173.365 533.244 171.654 534.552C172.503 531.998 173.482 529.49 174.587 527.036C175.144 525.856 175.776 524.713 176.481 523.615C177.606 521.941 182.591 517.737 183.092 523.285C183.3 526.34 178.999 529.297 176.897 530.8H176.946Z" fill="#263238"/>
<path d="M158.396 536.873C162.832 537.594 167.414 536.385 171.777 535.749C171.871 535.725 171.958 535.678 172.032 535.615C172.105 535.551 172.163 535.471 172.201 535.381C172.239 535.291 172.255 535.194 172.25 535.097C172.244 535 172.216 534.905 172.168 534.821C172.183 534.808 172.195 534.792 172.204 534.774C172.212 534.756 172.217 534.737 172.217 534.717C172.217 534.697 172.212 534.677 172.204 534.659C172.195 534.641 172.183 534.625 172.168 534.613C168.725 531.45 164.51 529.25 159.948 528.234C157.271 527.684 153.471 528.368 153.043 531.692C152.616 534.833 155.817 536.458 158.396 536.873ZM155.353 534.014C151.956 529.615 158.506 529.322 160.461 529.798C161.709 530.121 162.934 530.529 164.127 531.02C166.644 532.022 169.015 533.354 171.373 534.588C169.21 534.772 167.084 535.138 164.921 535.395C162.392 535.664 157.235 536.372 155.353 534.014Z" fill="#263238"/>
<path opacity="0.1" d="M164.115 558.906C145.259 558.576 127.064 557.953 125.683 557.061C124.583 556.364 124.045 545.305 123.776 531.924H130.742C138.44 538.23 154.73 551.342 164.115 558.906Z" fill="black"/>
<path d="M176.212 531.57H122.066C122.066 531.57 132.966 405.105 132.538 402.893C132 400.058 128.799 387.264 124.546 370.535C123.214 365.305 121.772 359.696 120.281 353.879C116.237 338.14 111.727 320.946 107.915 305.977C102.098 283.565 97.5522 266.152 97.5522 266.152H143.438C143.438 266.152 148.791 283.101 155.536 305.17C166.534 341.011 181.198 390.356 182.64 402.356C184.986 421.7 176.212 531.57 176.212 531.57Z" fill="#37474F"/>
<path d="M173.817 522.307C165.544 522.136 167.915 522.075 159.642 521.99C155.597 521.99 129.007 521.721 125.218 522.344C125.196 522.344 125.174 522.353 125.158 522.369C125.142 522.385 125.133 522.407 125.133 522.429C125.133 522.452 125.142 522.474 125.158 522.49C125.174 522.506 125.196 522.515 125.218 522.515C129.007 523.138 155.597 522.906 159.642 522.869C167.915 522.796 165.544 522.723 173.817 522.552C173.85 522.552 173.881 522.539 173.904 522.516C173.927 522.493 173.939 522.462 173.939 522.429C173.939 522.397 173.927 522.366 173.904 522.343C173.881 522.32 173.85 522.307 173.817 522.307Z" fill="#263238"/>
<path d="M142.73 395.134C140.958 387.313 138.294 379.639 135.984 371.916C131.292 356.315 126.571 340.714 121.821 325.113C119.451 317.317 117.072 309.52 114.685 301.724C113.479 297.789 112.257 293.858 111.019 289.932C109.797 286.082 108.44 282.282 107.353 278.396C106.913 276.82 106.668 277.687 107.243 279.691C108.379 283.724 109.504 287.769 110.689 291.801C113.011 299.785 115.357 307.761 117.728 315.728C122.42 331.59 127.153 347.439 131.927 363.276C134.314 371.227 136.705 379.17 139.1 387.105C140.311 390.886 141.287 394.739 142.021 398.641C142.666 402.718 142.83 406.856 142.51 410.971C141.984 419.256 141.019 427.529 140.261 435.79C139.504 444.05 138.722 452.36 137.964 460.633C136.44 477.122 134.925 493.607 133.418 510.087C133.235 512.177 133.051 514.267 132.893 516.368C132.893 517.065 133.895 517.004 133.968 516.368C135.752 500.079 137.121 483.717 138.648 467.403C140.176 451.089 141.703 434.91 143.219 418.669C143.597 414.588 144.037 410.507 144.037 406.449C144.027 402.64 143.589 398.845 142.73 395.134Z" fill="#263238"/>
<path d="M138.233 266.127C135.043 290.775 128.97 337.003 124.546 370.51C114.196 329.94 97.5522 266.127 97.5522 266.127H138.233Z" fill="#263238"/>
<path d="M149.5 559.334C146.872 560.189 71.6826 559.493 68.8475 557.648C67.7599 556.963 67.2223 546.002 66.9534 532.731V532.316C66.8923 529.59 66.8434 526.768 66.8312 523.92C66.8312 523.529 66.8312 523.138 66.8312 522.698C66.6601 503.562 68.0532 483.704 68.0532 483.704L117.202 484.022L115.821 522.662V524.189L115.552 532.193V533.012C115.552 533.012 144.086 546.234 146.994 548.556C149.903 550.878 152.139 558.454 149.5 559.334Z" fill="#F7A9A0"/>
<path d="M149.5 559.334C146.872 560.189 71.6826 559.493 68.8476 557.647C67.76 556.963 67.2223 546.002 66.9535 532.731V532.315C66.8924 529.59 66.8435 526.768 66.8313 523.92C66.8313 523.529 66.8313 523.138 66.8313 522.698H115.809V524.226L115.54 532.23V533.049C115.54 533.049 144.086 546.234 146.995 548.556C149.903 550.878 152.139 558.454 149.5 559.334Z" fill="#EBEBEB"/>
<path d="M149.805 559.175C147.141 560.03 71.267 559.309 68.3953 557.452C67.2955 556.755 66.7579 545.696 66.489 532.315L115.369 532.645C115.369 532.645 144.294 545.916 147.227 548.287C150.159 550.658 152.457 558.307 149.805 559.175Z" fill="#FB8500"/>
<path d="M148.742 556.132C136.021 555.692 84.6968 555.142 72.098 555.68C72.0002 555.68 72.0002 555.753 72.098 555.753C84.6846 556.462 136.021 556.597 148.742 556.34C149.011 556.328 149.011 556.132 148.742 556.132Z" fill="#263238"/>
<path d="M142.412 545.513C140.999 545.465 139.591 545.709 138.277 546.231C136.963 546.752 135.77 547.54 134.775 548.544C132.971 550.343 131.93 552.767 131.866 555.313C131.866 555.387 132.013 555.387 132.025 555.313C132.479 552.799 133.738 550.499 135.611 548.76C137.484 547.022 139.87 545.938 142.412 545.672C142.428 545.666 142.442 545.655 142.451 545.64C142.461 545.626 142.466 545.61 142.466 545.592C142.466 545.575 142.461 545.559 142.451 545.545C142.442 545.53 142.428 545.519 142.412 545.513Z" fill="#263238"/>
<path d="M120.33 534.014C115.235 533.904 109.332 535.639 106.118 539.77C105.996 539.929 106.216 540.112 106.375 540.026C110.851 537.74 115.558 535.938 120.416 534.649C120.485 534.623 120.543 534.573 120.58 534.51C120.618 534.446 120.633 534.371 120.623 534.298C120.613 534.225 120.579 534.157 120.526 534.106C120.473 534.054 120.404 534.022 120.33 534.014Z" fill="#263238"/>
<path d="M124.241 535.529C119.157 535.407 113.243 537.142 110.029 541.285C109.907 541.444 110.139 541.615 110.286 541.542C114.76 539.248 119.467 537.442 124.326 536.153C124.4 536.132 124.463 536.085 124.505 536.021C124.547 535.957 124.564 535.88 124.554 535.804C124.543 535.728 124.506 535.659 124.449 535.608C124.391 535.558 124.317 535.53 124.241 535.529Z" fill="#263238"/>
<path d="M128.163 537.093C123.068 536.971 117.165 538.719 113.952 542.849C113.817 543.008 114.049 543.179 114.208 543.106C118.678 540.814 123.381 539.012 128.237 537.729C128.305 537.703 128.363 537.655 128.402 537.592C128.44 537.529 128.456 537.456 128.447 537.383C128.439 537.31 128.406 537.242 128.355 537.189C128.304 537.137 128.236 537.103 128.163 537.093Z" fill="#263238"/>
<path d="M132.074 538.67C126.978 538.548 121.076 540.283 117.862 544.425C117.74 544.584 117.972 544.755 118.119 544.682C122.592 542.387 127.299 540.58 132.159 539.293C132.233 539.272 132.296 539.225 132.338 539.161C132.38 539.097 132.397 539.02 132.387 538.944C132.376 538.869 132.339 538.799 132.282 538.749C132.224 538.698 132.15 538.67 132.074 538.67Z" fill="#263238"/>
<path d="M75.4586 543.631C69.7397 543.631 69.6786 552.466 75.4586 552.503C81.2387 552.539 81.1776 543.668 75.4586 543.631Z" fill="white"/>
<path d="M125.964 520.425C123.398 518.262 120.135 520.328 118.522 522.527C115.831 526.358 114.196 530.83 113.781 535.493C113.778 535.514 113.781 535.535 113.788 535.554C113.796 535.574 113.808 535.592 113.823 535.606C113.838 535.62 113.857 535.631 113.877 535.636C113.897 535.642 113.919 535.643 113.939 535.639C113.956 535.736 113.996 535.827 114.055 535.905C114.114 535.984 114.192 536.046 114.28 536.088C114.369 536.13 114.467 536.15 114.565 536.146C114.663 536.143 114.758 536.115 114.844 536.067C118.51 533.623 122.701 531.399 125.487 527.88C127.088 525.827 128.383 522.466 125.964 520.425ZM119.61 531.191C117.85 532.413 116.029 533.635 114.318 534.93C115.187 532.376 116.187 529.868 117.312 527.415C117.869 526.239 118.501 525.1 119.206 524.006C120.331 522.332 125.316 518.128 125.817 523.664C126.013 526.682 121.711 529.688 119.61 531.191Z" fill="#263238"/>
<path d="M101.108 537.265C105.532 537.986 110.127 536.764 114.477 536.14C114.569 536.117 114.655 536.072 114.727 536.011C114.799 535.949 114.856 535.871 114.894 535.784C114.932 535.697 114.949 535.602 114.945 535.507C114.94 535.412 114.914 535.319 114.868 535.236C114.886 535.224 114.9 535.207 114.91 535.188C114.92 535.169 114.925 535.148 114.925 535.126C114.925 535.105 114.92 535.083 114.91 535.064C114.9 535.045 114.886 535.029 114.868 535.016C111.421 531.861 107.208 529.662 102.648 528.637C99.9718 528.1 96.1714 528.784 95.7437 532.108C95.316 535.236 98.5298 536.837 101.108 537.265ZM98.0655 534.332C94.6683 529.933 101.218 529.652 103.173 530.128C104.422 530.451 105.647 530.859 106.839 531.35C109.31 532.416 111.724 533.607 114.074 534.918C111.911 535.102 109.784 535.456 107.634 535.725C105.092 536.055 99.9473 536.764 98.0655 534.332Z" fill="#263238"/>
<path d="M141.96 266.127C141.96 266.127 140.897 288.123 135.85 305.476C135.447 306.918 135.007 308.323 134.542 309.679C129.942 311.547 125.52 313.83 121.333 316.498C121.333 316.498 120.807 334.156 120.282 353.867C119.695 375.863 119.06 400.449 119.206 405.667C119.671 425.219 116.762 532.352 116.762 532.352L62.6155 532.572C62.6155 532.572 72.3915 412.816 72.3915 405.716C72.2815 394.242 75.0066 343.504 77.1206 306.514C78.3426 283.712 79.4669 266.188 79.4669 266.188L141.96 266.127Z" fill="#37474F"/>
<path d="M114.868 522.711C106.595 522.576 108.966 522.503 100.705 522.454C96.648 522.454 70.0573 522.307 66.2813 522.955C66.2587 522.955 66.2369 522.964 66.2209 522.98C66.2048 522.996 66.1958 523.018 66.1958 523.04C66.1958 523.063 66.2048 523.085 66.2209 523.101C66.2369 523.117 66.2587 523.126 66.2813 523.126C70.0573 523.737 96.6603 523.383 100.705 523.334C108.978 523.212 106.595 523.163 114.868 522.955C114.9 522.955 114.932 522.942 114.954 522.919C114.977 522.896 114.99 522.865 114.99 522.833C114.99 522.8 114.977 522.769 114.954 522.746C114.932 522.723 114.9 522.711 114.868 522.711Z" fill="#263238"/>
<path d="M83.976 273.972C82.9739 304.18 81.923 334.388 80.5666 364.572C79.2102 394.755 77.3894 425.158 74.8598 455.366C73.4423 472.254 72.0981 496.01 70.2773 512.8C70.2773 512.91 70.4362 512.959 70.4606 512.8C74.3955 482.837 76.5706 445.798 78.5381 415.639C80.5055 385.48 81.7886 355.297 82.8151 325.113C83.4016 308.005 83.8415 290.897 84.3548 273.862C84.3181 273.728 83.9882 273.728 83.976 273.972Z" fill="#263238"/>
<path d="M136.864 308.372C131.462 310.627 126.265 313.346 121.332 316.498C121.299 316.525 121.276 316.563 121.267 316.605C121.258 316.647 121.265 316.691 121.285 316.729C121.305 316.766 121.339 316.796 121.378 316.812C121.418 316.828 121.463 316.829 121.504 316.816C126.722 314.274 132.049 311.83 137.133 309.007C137.197 308.96 137.244 308.893 137.265 308.816C137.287 308.739 137.281 308.657 137.25 308.583C137.219 308.509 137.164 308.449 137.094 308.41C137.024 308.372 136.943 308.358 136.864 308.372Z" fill="#263238"/>
<path d="M137.121 289.748C136.754 291.667 136.29 293.573 135.899 295.492C135.508 297.41 135.227 299.158 134.75 300.893C134.356 302.608 133.483 304.176 132.233 305.414C131.536 306.062 130.754 306.636 130.009 307.247L128.787 308.213C128.787 307.956 128.897 307.7 128.933 307.431C129.068 306.698 129.19 305.977 129.312 305.243C129.581 303.618 129.838 301.993 130.094 300.355C130.583 297.154 131.023 293.928 131.695 290.775C131.695 290.64 131.524 290.592 131.5 290.775C130.705 293.903 129.825 296.995 129.129 300.16C128.787 301.712 127.577 309.362 127.528 309.936C127.479 310.51 127.418 311.06 127.406 311.622C127.326 312.19 127.326 312.766 127.406 313.333C127.406 313.48 127.601 313.455 127.662 313.333C127.9 312.804 128.065 312.245 128.151 311.671C128.298 311.133 128.42 310.571 128.518 310.021C128.518 309.826 128.518 309.618 128.603 309.41C129.361 308.958 130.058 308.347 130.766 307.834C131.475 307.321 132.306 306.746 133.015 306.148C134.302 305.005 135.217 303.502 135.642 301.834C136.108 300.032 136.41 298.191 136.546 296.335C136.791 294.16 136.962 291.972 137.267 289.81C137.341 289.614 137.145 289.614 137.121 289.748Z" fill="#263238"/>
<path d="M117.312 216.38C121.504 229.003 140.274 269.133 148.155 271.944C156.367 274.852 188.078 278.482 195.117 272.946C198.563 270.221 199.761 241.174 195.117 241.907C190.473 242.64 162.514 243.655 159.19 242.469C155.866 241.284 133.663 208.962 124.644 201.092C109.088 187.589 115.076 209.573 117.312 216.38Z" fill="#F7A9A0"/>
<path d="M188.103 241.418L187.65 277.577C187.65 277.577 155.133 277.663 146.469 273.105C137.805 268.547 119.475 226.767 114.893 210.783C110.31 194.799 117.642 192.331 129.288 204.062C140.933 215.793 158.445 240.38 160.522 240.881C162.599 241.382 188.103 241.418 188.103 241.418Z" fill="#FB8500"/>
<path d="M144.709 221.927C138.019 223.05 131.54 225.193 125.5 228.282L124.4 228.856C124.119 228.991 123.85 229.137 123.581 229.296C123.043 229.577 122.518 229.87 121.992 230.188L121.76 229.602L122.872 228.954L123.679 228.526C124.18 228.245 124.693 227.964 125.206 227.707C128.308 226.098 131.542 224.757 134.872 223.699C137.955 222.701 141.108 221.937 144.306 221.414L144.709 221.927ZM151.968 231.056C151.392 231.358 150.8 231.632 150.196 231.875C148.635 232.532 146.99 232.968 145.308 233.17C144.453 233.268 143.597 233.414 142.742 233.463L140.164 233.536C136.714 233.443 133.31 232.723 130.119 231.41C128.2 230.665 126.331 229.76 124.461 228.856C124.216 228.758 123.984 228.636 123.74 228.526C123.153 228.257 122.518 227.976 121.968 227.72L121.394 227.475L120.856 227.243L121.064 227.756C121.064 227.903 121.186 228.05 121.235 228.196H121.345L122.921 228.905L123.63 229.247C125.658 230.213 127.699 231.239 129.825 232.07C133.102 233.418 136.597 234.159 140.139 234.257L142.779 234.196C143.658 234.196 144.538 233.989 145.406 233.891C147.17 233.687 148.898 233.239 150.538 232.559C151.219 232.291 151.884 231.985 152.53 231.642L151.968 231.056ZM139.455 215.487C137.168 216.548 134.945 217.74 132.795 219.056C128.75 221.544 124.917 224.36 121.333 227.475L121.003 227.756C121.003 227.903 121.125 228.05 121.174 228.196V228.294C121.174 228.294 121.174 228.294 121.247 228.294C121.455 228.111 121.65 227.927 121.858 227.769C125.379 224.769 129.134 222.056 133.088 219.655C135.279 218.344 137.534 217.145 139.846 216.062L139.455 215.487Z" fill="white"/>
<path d="M178.632 259.272C178.632 256.4 178.84 244.95 179.096 242.164H179.182C179.463 244.925 179.61 256.229 179.597 259.101C179.692 264.811 179.476 270.522 178.95 276.209C178.943 276.227 178.93 276.244 178.914 276.255C178.898 276.266 178.878 276.272 178.858 276.272C178.838 276.272 178.819 276.266 178.802 276.255C178.786 276.244 178.773 276.227 178.766 276.209C178.339 270.575 178.571 264.917 178.632 259.272Z" fill="#263238"/>
<path opacity="0.1" d="M114.868 210.771C119.451 226.767 137.781 268.535 146.445 273.093C150.599 275.28 160.229 276.404 169.137 276.966L118.106 196.742C113.744 196.278 112.094 201.007 114.868 210.771Z" fill="black"/>
<path d="M73.7844 298.742C73.9799 298.938 153.312 293.512 153.972 292.632C154.901 291.41 129.789 210.758 123.495 198.966C120.819 193.919 107.988 193.186 102.917 197.964C90.2203 209.903 81.3852 248.506 79.5278 260.078C76.4483 279.166 73.0756 298.046 73.7844 298.742Z" fill="#FB8500"/>
<path d="M149.732 276.588L147.508 275.28C144.51 273.534 141.422 271.947 138.257 270.526L136.522 269.769L135.679 269.427C133.342 268.461 130.946 267.645 128.506 266.983C125.171 266.052 121.753 265.447 118.302 265.174C111.376 264.874 104.445 265.657 97.7601 267.496L96.5381 267.838C96.2326 267.911 95.9393 267.997 95.646 268.095C90.9884 269.519 86.4624 271.342 82.1185 273.545C80.8965 274.119 79.6745 274.767 78.5502 275.366L78.1836 275.561L76.8394 276.282L76.9494 275.659L78.3303 274.95C79.6989 274.205 81.0798 273.484 82.4729 272.812C83.6215 272.225 84.7947 271.675 85.9678 271.15C88.9186 269.796 91.9462 268.617 95.035 267.618L95.9271 267.361C96.477 267.178 97.0269 267.019 97.589 266.873C100.955 265.926 104.398 265.276 107.878 264.93C111.352 264.553 114.85 264.463 118.339 264.661C124.474 265.185 130.485 266.691 136.143 269.121L136.974 269.488L138.428 270.135C141.598 271.596 144.686 273.228 147.679 275.023L149.585 276.148L149.732 276.588ZM145.626 263.146C143.597 264.368 141.618 265.59 139.65 266.885C138.428 267.642 137.316 268.412 136.143 269.158L135.679 269.463C134.078 270.49 132.453 271.48 130.791 272.408C127.816 274.147 124.575 275.386 121.198 276.074C119.512 276.398 117.788 276.484 116.078 276.331C115.222 276.245 114.355 276.221 113.512 276.099L110.97 275.647C107.614 274.843 104.43 273.439 101.573 271.504C99.8497 270.38 98.2122 269.06 96.5503 267.838L95.9149 267.361C95.4016 266.97 94.8762 266.579 94.3507 266.213L93.8497 265.846L93.1165 265.345C90.2056 263.273 86.7524 262.096 83.1816 261.96C81.7728 261.986 80.3809 262.272 79.0757 262.803L78.9657 263.463C80.299 262.908 81.7253 262.609 83.1694 262.583C86.6104 262.749 89.9279 263.917 92.7132 265.944L93.1409 266.237L93.6419 266.592C94.1063 266.922 94.5707 267.264 95.0228 267.618L95.6582 268.095C97.4546 269.463 99.2387 270.881 101.157 272.127C104.083 274.116 107.346 275.557 110.787 276.38L113.402 276.856C114.269 276.979 115.149 277.015 116.029 277.101C117.8 277.254 119.584 277.167 121.332 276.844C124.778 276.131 128.082 274.851 131.108 273.056C132.929 272.029 134.701 270.917 136.449 269.769L136.901 269.488L139.98 267.471C141.887 266.249 143.817 265.027 145.772 263.805L145.626 263.146ZM144.282 258.82C142.159 258.134 140.001 257.563 137.817 257.109C134.379 256.414 130.876 256.094 127.369 256.156C123.861 256.222 120.366 256.59 116.921 257.255C113.479 257.905 110.092 258.82 106.791 259.993C102.326 261.597 98.0021 263.567 93.8619 265.883C93.6175 266.005 93.3853 266.139 93.1531 266.274C91.4179 267.239 89.7193 268.241 88.033 269.28C86.1633 270.429 84.3059 271.614 82.4729 272.812C81.0431 273.728 79.6256 274.669 78.2081 275.598L76.8394 276.49C76.8394 276.685 76.7783 276.869 76.7539 277.052C78.5625 275.903 80.3466 274.73 82.1429 273.581C83.3649 272.763 84.6847 271.944 85.9678 271.137C86.7376 270.649 87.5075 270.172 88.2896 269.708C90.0493 268.645 91.8456 267.606 93.6542 266.616L94.3629 266.237C98.4191 264.016 102.649 262.128 107.011 260.592C113.557 258.26 120.424 256.949 127.369 256.706C130.841 256.625 134.311 256.92 137.719 257.585C139.995 258.044 142.243 258.631 144.453 259.345C144.392 259.137 144.331 258.954 144.282 258.783V258.82Z" fill="white"/>
<path d="M92.2611 207.129C71.2061 230.347 47.4626 269.585 57.6174 278.005C66.9046 285.655 100.778 278.372 122.078 270.05C126.135 268.461 109.687 232.608 105.556 234.734C101.208 237.049 96.7182 239.09 92.1145 240.844C90.8925 241.162 97.3447 233.341 104.481 214.547C111.691 195.349 104.298 193.846 92.2611 207.129Z" fill="#F7A9A0"/>
<path d="M157.308 232.021C157.308 236.188 147.056 235.369 147.056 235.369C148.55 236.343 149.657 237.808 150.184 239.512C150.954 242.579 146.518 245.145 146.518 245.145C147.85 246.482 148.755 248.183 149.121 250.033C149.561 253.04 145.455 256.278 145.455 256.278C145.998 258.198 145.833 260.249 144.99 262.058C142.546 266.811 134.335 266.946 129.263 267.972C123.581 269.286 118.015 271.06 112.62 273.276L103.186 235.822C103.186 235.822 125.182 222.758 131.292 223.052C136.449 223.406 157.284 225.642 157.308 232.021Z" fill="#F7A9A0"/>
<path d="M146.97 235.247C141.52 233.659 135.703 233.39 130.094 233.182C129.972 233.182 129.96 233.365 130.094 233.378C135.691 233.512 141.373 235.149 146.933 235.516C146.969 235.521 147.005 235.511 147.034 235.49C147.062 235.468 147.081 235.436 147.086 235.4C147.091 235.364 147.081 235.328 147.06 235.3C147.038 235.271 147.006 235.252 146.97 235.247Z" fill="#263238"/>
<path d="M146.335 244.767C145.062 244.527 143.764 244.457 142.473 244.559C141.104 244.559 139.736 244.62 138.367 244.681C135.622 244.803 132.885 244.999 130.155 245.268C130.033 245.268 130.021 245.463 130.155 245.463C132.893 245.341 135.63 245.255 138.355 245.243H142.461C143.753 245.349 145.052 245.308 146.335 245.121C146.368 245.105 146.397 245.08 146.417 245.049C146.437 245.017 146.448 244.981 146.448 244.944C146.448 244.907 146.437 244.87 146.417 244.839C146.397 244.807 146.368 244.782 146.335 244.767Z" fill="#263238"/>
<path d="M145.259 256.388C144.107 256.186 142.929 256.186 141.777 256.388L138.086 256.62C135.642 256.754 133.088 256.901 130.583 256.95C130.557 256.95 130.532 256.96 130.514 256.979C130.496 256.997 130.485 257.022 130.485 257.048C130.485 257.074 130.496 257.099 130.514 257.117C130.532 257.135 130.557 257.145 130.583 257.145C133.125 257.145 135.667 257.145 138.208 257.036L141.948 256.926C143.087 256.995 144.23 256.858 145.32 256.522C145.338 256.514 145.352 256.499 145.359 256.481C145.366 256.463 145.365 256.442 145.357 256.425C145.349 256.407 145.334 256.393 145.316 256.386C145.297 256.379 145.277 256.38 145.259 256.388Z" fill="#263238"/>
<path d="M102.123 235.516L110.237 275.842C110.237 275.842 59.8048 289.003 54.5746 276.245C49.3444 263.488 79.0146 216.111 96.1226 202.595C113.231 189.08 106.803 210.367 106.277 212.078C103.968 219.642 93.2142 239.365 93.2142 239.365L102.123 235.516Z" fill="#FB8500"/>
<path d="M110.237 275.793C110.237 275.793 59.8048 288.954 54.5747 276.196C51.7641 269.329 59.0472 252.453 69.0309 236.213L69.1898 235.956L69.3975 235.626C69.4586 235.516 69.532 235.406 69.6053 235.296C73.2108 229.484 77.11 223.86 81.2876 218.445L81.7153 217.895C85.9233 212.259 90.7475 207.111 96.0982 202.547C113.206 189.031 106.779 210.318 106.253 212.029C106.094 212.567 105.886 213.166 105.642 213.813C105.544 214.058 105.447 214.327 105.337 214.595C103.931 218.188 101.671 223.027 99.3854 227.475L99.1166 228.013C99.1166 228.013 99.1166 228.135 99.031 228.184L98.8844 228.465C95.9883 234.172 93.361 239.011 93.2021 239.304L102.123 235.516L110.237 275.793Z" fill="#FB8500"/>
<path d="M99.3854 227.475L99.1166 228.013C99.1166 228.013 99.1166 228.135 99.0311 228.184L98.4201 228.575L93.4465 231.813C90.5276 233.736 87.4773 235.451 84.3182 236.946C82.7189 237.683 81.0426 238.241 79.3202 238.608C77.5766 239.014 75.7572 238.959 74.0412 238.449C73.6135 238.327 73.1735 238.229 72.8192 238.094L71.5972 237.569C70.785 237.222 70.0006 236.814 69.2509 236.347L69.0676 236.237L69.2265 235.98L69.4342 235.65C69.4893 235.703 69.5509 235.748 69.6175 235.785L69.7886 235.883C70.4473 236.317 71.1424 236.693 71.866 237.007L73.088 237.52L74.31 237.875C75.9357 238.37 77.6626 238.433 79.3202 238.058C81.0026 237.708 82.6417 237.176 84.2082 236.469C87.3458 235.009 90.3795 233.335 93.2877 231.459L97.2592 228.917L98.2979 228.245L99.3854 227.475ZM98.1634 228.221C91.8946 229.748 85.7479 231.691 79.4913 233.219C76.2163 234.037 72.8925 234.758 69.5564 235.296C69.4831 235.406 69.4098 235.516 69.3487 235.626L69.1409 235.956L69.7031 235.858C73.0391 235.296 76.3508 234.551 79.6257 233.72C85.5035 232.241 91.2714 230.408 97.1248 228.893L98.3468 228.575C98.4934 228.575 98.6522 228.49 98.8111 228.465L98.9578 228.184C98.9578 228.184 98.9578 228.074 99.0433 228.013L98.1634 228.221ZM98.5667 218.066C97.0458 218.886 95.455 219.569 93.8131 220.107C92.2033 220.655 90.4988 220.872 88.8029 220.742C86.2299 220.38 83.7819 219.404 81.6664 217.895L81.2388 218.445C83.4639 220.008 86.0338 221.009 88.7296 221.365C90.5153 221.495 92.3084 221.253 93.9964 220.657C95.6885 220.107 97.3251 219.399 98.8844 218.542C101.105 217.338 103.263 216.02 105.349 214.595C105.459 214.327 105.557 214.058 105.654 213.813C103.384 215.352 101.034 216.772 98.6156 218.066H98.5667Z" fill="white"/>
<path d="M101.255 235.553C95.4626 237.581 80.2854 245.158 76.9493 248.262C76.9351 248.28 76.9271 248.303 76.9268 248.327C76.9264 248.35 76.9336 248.373 76.9472 248.392C76.9609 248.411 76.9804 248.426 77.0027 248.433C77.0251 248.44 77.0492 248.44 77.0715 248.433C80.3465 246.123 99.0675 236.946 102.037 235.822C102.037 235.822 102.184 236.176 102.245 236.274C102.306 236.372 102.416 236.335 102.416 236.2C102.364 235.87 102.29 235.544 102.196 235.223L101.255 235.553Z" fill="#263238"/>
<path d="M96.9414 258.086C96.3915 255.276 94.2896 244.009 93.9841 241.174C93.9841 241.174 93.9841 241.113 94.0574 241.174C94.8884 243.813 97.2835 254.873 97.8456 257.683C99.0889 263.273 100.023 268.927 100.644 274.62C100.644 274.718 100.497 274.779 100.461 274.62C98.9821 269.219 98.0167 263.622 96.9414 258.086Z" fill="#263238"/>
<path d="M92.7987 239.512C94.3751 236.078 96.3059 232.815 98.0411 229.467C99.7764 226.119 101.573 222.795 103.186 219.41H103.259C102.281 221.72 101.304 224.029 100.253 226.302C100.571 225.948 100.864 225.569 101.157 225.19C101.695 224.506 102.184 223.785 102.672 223.064C102.672 223.064 102.758 223.064 102.746 223.064C102.365 223.873 101.894 224.635 101.341 225.337C100.931 225.864 100.482 226.358 99.9963 226.815C99.5686 227.744 99.1165 228.673 98.6521 229.589C97.1475 233.001 95.3869 236.293 93.3853 239.439C93.312 239.671 92.7376 239.671 92.7987 239.512Z" fill="#263238"/>
<path d="M76.0573 281.476C82.0084 281.402 104.481 276.991 110.041 275.842C109.968 275.256 110.041 275.048 109.894 274.217C109.894 274.107 110.053 274.058 110.078 274.217C110.224 275.011 110.762 276.588 110.542 276.661C107.866 277.712 81.8984 282.245 76.0573 281.757C76.0388 281.757 76.0205 281.753 76.0035 281.746C75.9864 281.739 75.971 281.729 75.9579 281.715C75.9449 281.702 75.9345 281.687 75.9274 281.67C75.9204 281.653 75.9167 281.635 75.9167 281.616C75.9167 281.598 75.9204 281.579 75.9274 281.562C75.9345 281.545 75.9449 281.53 75.9579 281.517C75.971 281.504 75.9864 281.493 76.0035 281.486C76.0205 281.479 76.0388 281.476 76.0573 281.476Z" fill="#263238"/>
<path d="M136.571 277.406L178.412 283.04L194.286 224.885L152.445 219.263L136.571 277.406Z" fill="#263238"/>
<path d="M138.636 277.675L180.465 283.309L196.339 225.166L154.51 219.532L138.636 277.675Z" fill="#37474F"/>
<path d="M173.329 249.569C173.067 250.656 172.417 251.609 171.5 252.248C170.584 252.888 169.465 253.169 168.355 253.04C167.831 252.984 167.326 252.817 166.873 252.548C166.42 252.28 166.03 251.917 165.729 251.485C165.429 251.052 165.226 250.56 165.132 250.042C165.039 249.524 165.059 248.991 165.19 248.481C165.451 247.394 166.101 246.44 167.017 245.798C167.933 245.157 169.052 244.872 170.164 244.999C170.689 245.054 171.195 245.222 171.65 245.491C172.104 245.76 172.494 246.124 172.795 246.558C173.095 246.992 173.299 247.485 173.391 248.005C173.483 248.525 173.462 249.058 173.329 249.569Z" fill="white"/>
<path d="M195.923 237.154C197.671 242.042 202.657 248.408 202.73 252.27C202.78 253.221 202.523 254.163 201.997 254.957C201.471 255.751 200.704 256.355 199.809 256.681C199.809 256.681 203.475 258.966 202.901 262.473C202.644 264.282 199.516 265.455 199.516 265.455C200.307 266.015 200.927 266.783 201.309 267.674C201.691 268.564 201.819 269.543 201.679 270.502C201.166 272.946 198.111 273.765 198.111 273.765C198.111 273.765 199.944 276.905 198.612 279.251C195.899 284.005 174.38 281.818 171.862 273.545C170.64 269.695 175.907 270.514 175.907 270.514C175.907 270.514 168.673 267.52 169.015 263.072C169.357 258.624 176.078 260.09 176.078 260.09C176.078 260.09 169.1 257.133 169.968 252.551C170.836 247.968 177.3 250.412 177.3 250.412C177.3 250.412 172.84 246.746 174.27 243.325C176.628 237.765 184.962 245.903 189.801 245.255L193.211 237.716L195.923 237.154Z" fill="#F7A9A0"/>
<path d="M199.553 244.4C198.331 239.622 204.587 234.514 204.05 229.736C203.329 223.321 195.642 228.758 193.149 237.703L192.428 245.035L199.553 244.4Z" fill="#F7A9A0"/>
<path d="M197.659 273.96C197.675 273.96 197.69 273.967 197.702 273.978C197.713 273.99 197.72 274.005 197.72 274.021C197.72 274.038 197.713 274.053 197.702 274.065C197.69 274.076 197.675 274.082 197.659 274.082C190.133 275.141 182.464 273.892 175.663 270.502C175.443 270.392 175.54 269.989 175.797 270.074C182.857 272.424 190.221 273.733 197.659 273.96Z" fill="#263238"/>
<path d="M199.614 265.504C199.699 265.504 199.699 265.651 199.614 265.663C191.292 266.767 182.849 264.86 175.809 260.286C175.565 260.115 175.516 259.724 175.809 259.895C180.734 262.73 192.624 265.394 199.614 265.504Z" fill="#263238"/>
<path d="M176.836 249.899C183.764 254.31 191.402 256.009 199.504 256.73C199.602 256.73 199.589 256.889 199.504 256.901C195.447 257.659 190.327 256.693 186.416 255.606C182.755 254.669 179.404 252.785 176.701 250.143C176.579 250.033 176.689 249.801 176.836 249.899Z" fill="#263238"/>
<path d="M124.974 202.07C125.121 205.736 125.231 214.058 119.585 213.435C117.316 212.984 115.224 211.889 113.561 210.282C111.78 208.803 110.169 207.131 108.758 205.296C107.14 203.302 105.685 201.181 104.408 198.954C104.408 198.868 104.212 198.954 104.273 199.052C105.569 201.288 106.644 203.597 108.159 205.711C109.59 207.761 111.292 209.606 113.218 211.198C115.028 212.879 117.31 213.963 119.756 214.302C120.805 214.376 121.847 214.084 122.705 213.476C123.563 212.867 124.183 211.981 124.461 210.966C125.295 208.076 125.471 205.036 124.974 202.07Z" fill="#263238"/>
<path d="M119.414 209.756C115.332 210.111 108.66 202.424 106.705 197.206C107.218 194.487 107.866 191.796 108.648 189.141C109.271 186.563 109.87 183.667 110.31 180.99L126.514 187.528C125.067 190.741 124.017 194.118 123.385 197.585C123.349 197.955 123.349 198.327 123.385 198.697C123.385 198.697 123.385 198.819 123.385 198.881C123.422 201.019 123.349 209.414 119.414 209.756Z" fill="#F7A9A0"/>
<path d="M123.337 198.697C123.343 198.758 123.343 198.82 123.337 198.881C122.755 198.877 122.175 198.828 121.601 198.734C111.899 197.084 111.349 184.852 111.398 181.443L115.455 183.068L126.453 187.528C125.006 190.74 123.96 194.118 123.337 197.585C123.301 197.955 123.301 198.327 123.337 198.697Z" fill="#263238"/>
<path d="M108.453 162.66C106.766 168.77 110.383 186.037 114.758 189.801C121.113 195.276 131.28 195.557 135.874 187.968C140.322 180.636 135.214 158.139 130.339 154.742C123.166 149.719 110.933 153.691 108.453 162.66Z" fill="#F7A9A0"/>
<path d="M125.524 173.585C125.524 173.585 125.45 173.658 125.524 173.707C125.793 174.868 125.915 176.249 124.937 176.848C124.937 176.848 124.937 176.921 124.937 176.909C126.147 176.469 125.976 174.648 125.524 173.585Z" fill="#263238"/>
<path d="M124.241 172.583C122.335 172.828 123.019 176.616 124.717 176.396C126.416 176.176 125.866 172.388 124.241 172.583Z" fill="#263238"/>
<path d="M132.159 172.302C132.159 172.302 132.269 172.302 132.269 172.4C132.428 173.622 132.807 174.905 133.931 175.125V175.186C132.599 175.186 132.123 173.426 132.159 172.302Z" fill="#263238"/>
<path d="M133.015 170.885C134.884 170.432 135.654 174.196 133.919 174.551C132.184 174.905 131.451 171.263 133.015 170.885Z" fill="#263238"/>
<path d="M122.457 171.08C122.934 170.859 123.395 170.606 123.838 170.322C124.35 170.124 124.781 169.758 125.06 169.284C125.123 169.115 125.128 168.93 125.075 168.757C125.022 168.585 124.913 168.435 124.766 168.331C124.446 168.167 124.088 168.092 123.729 168.114C123.371 168.135 123.024 168.252 122.726 168.453C122.063 168.766 121.54 169.315 121.259 169.992C121.196 170.156 121.184 170.334 121.225 170.504C121.265 170.675 121.356 170.829 121.486 170.946C121.615 171.064 121.777 171.14 121.951 171.163C122.124 171.187 122.3 171.158 122.457 171.08Z" fill="#263238"/>
<path d="M134.237 169.724C133.699 169.724 133.198 169.626 132.66 169.577C132.1 169.603 131.546 169.444 131.084 169.125C130.961 168.994 130.884 168.827 130.864 168.648C130.844 168.47 130.883 168.29 130.974 168.135C131.203 167.859 131.501 167.649 131.839 167.526C132.176 167.404 132.54 167.373 132.892 167.438C133.629 167.458 134.332 167.755 134.86 168.269C134.973 168.393 135.048 168.546 135.076 168.71C135.104 168.875 135.084 169.044 135.018 169.198C134.952 169.352 134.844 169.483 134.705 169.576C134.566 169.669 134.404 169.721 134.237 169.724Z" fill="#263238"/>
<path d="M125.695 184.583C125.994 184.883 126.386 185.073 126.807 185.121C127.246 185.036 127.662 184.862 128.029 184.608C128.029 184.608 128.115 184.608 128.029 184.669C127.896 184.926 127.697 185.143 127.452 185.298C127.207 185.453 126.925 185.539 126.636 185.548C126.387 185.522 126.152 185.423 125.959 185.265C125.766 185.106 125.623 184.895 125.548 184.656C125.573 184.595 125.658 184.522 125.695 184.583Z" fill="#263238"/>
<path d="M126.355 180.587C126.731 181.003 127.189 181.336 127.7 181.568C128.211 181.799 128.764 181.923 129.324 181.931C129.815 181.941 130.304 181.883 130.778 181.76L131.047 181.687L131.292 181.601C131.354 181.58 131.407 181.538 131.442 181.483C131.478 181.427 131.494 181.361 131.487 181.296C131.494 181.256 131.494 181.214 131.487 181.174V181.076C131.365 180.159 131.047 178.803 131.047 178.803C131.402 178.913 133.222 179.402 133.113 178.925C132.343 174.864 131.159 170.892 129.581 167.072C129.573 167.05 129.559 167.032 129.541 167.018C129.522 167.005 129.5 166.998 129.477 166.998C129.454 166.998 129.432 167.005 129.413 167.018C129.395 167.032 129.381 167.05 129.373 167.072C130.058 170.836 131.414 174.404 132.172 178.204C131.523 178.023 130.853 177.937 130.18 177.948C130.058 177.948 130.84 180.563 130.852 180.978C130.123 181.173 129.362 181.219 128.615 181.114C127.867 181.009 127.149 180.755 126.501 180.367C126.355 180.404 126.269 180.502 126.355 180.587Z" fill="#263238"/>
<path d="M130.241 181.54C129.851 182.251 129.288 182.853 128.603 183.288C128.234 183.503 127.808 183.601 127.381 183.569C126.416 183.483 126.257 182.64 126.306 181.883C126.332 181.467 126.41 181.056 126.538 180.661C127.649 181.336 128.945 181.644 130.241 181.54Z" fill="#263238"/>
<path d="M128.603 183.3C128.234 183.515 127.808 183.613 127.381 183.581C126.416 183.496 126.257 182.652 126.306 181.895C126.79 181.841 127.279 181.95 127.695 182.205C128.111 182.459 128.43 182.844 128.603 183.3Z" fill="#FF9ABB"/>
<path d="M133.662 159.789C132.685 158.432 131.609 157.076 130.632 156.966C129.654 156.856 129.544 159.202 127.516 159.789C124.766 160.571 122.872 158.31 118.962 158.872C113.279 159.691 111.825 164.897 113.402 172.852C114.807 179.964 110.677 181.553 110.677 181.553C110.677 181.553 104.713 166.485 108 160.363C111.288 154.241 120.905 149.781 128.774 153.263C131.573 154.522 133.662 159.789 133.662 159.789Z" fill="#263238"/>
<path d="M113.548 177.605C113.548 177.605 109.357 172.168 106.876 173.683C104.396 175.198 107.707 183.214 110.762 184.192C111.143 184.345 111.551 184.42 111.962 184.411C112.373 184.401 112.777 184.309 113.151 184.139C113.524 183.968 113.86 183.724 114.136 183.42C114.412 183.116 114.624 182.759 114.758 182.371L113.548 177.605Z" fill="#F7A9A0"/>
<path d="M107.878 175.968C107.878 175.968 107.878 175.968 107.878 176.054C108.861 176.49 109.742 177.128 110.464 177.926C111.186 178.723 111.733 179.663 112.07 180.685C111.937 180.48 111.762 180.306 111.557 180.176C111.351 180.045 111.119 179.96 110.878 179.928C110.636 179.895 110.39 179.916 110.157 179.987C109.924 180.059 109.71 180.18 109.528 180.343C109.528 180.343 109.528 180.465 109.589 180.453C109.953 180.316 110.351 180.295 110.727 180.394C111.104 180.492 111.44 180.705 111.691 181.003C112.095 181.51 112.451 182.054 112.754 182.628C112.852 182.811 113.194 182.701 113.108 182.481C113.023 179.744 110.774 176.09 107.878 175.968Z" fill="#263238"/>
<path d="M123.068 151.113C120.684 150.433 118.215 150.099 115.736 150.123C112.937 150.208 104.42 152.225 102.624 154.278C100.827 156.33 101.561 164.542 101.695 165.74C101.829 166.937 103.479 174.037 106.363 175.369C109.247 176.701 107.585 164.445 111.043 159.752C114.501 155.06 123.068 151.113 123.068 151.113Z" fill="#FB8500"/>
<path opacity="0.1" d="M123.068 151.125C123.068 151.125 114.514 155.06 110.982 159.752C107.45 164.445 109.173 176.689 106.314 175.369C105.647 175.002 105.06 174.506 104.586 173.91C104.112 173.314 103.761 172.631 103.552 171.899C103.552 168.233 104.102 162.489 106.473 158.188C108.697 154.168 113.206 151.589 118.241 150.208C119.873 150.373 121.488 150.68 123.068 151.125Z" fill="black"/>
<path d="M108.147 182.506C107.866 179.219 109.809 169.98 112.497 164.445C115.186 158.909 124.925 154.4 126.355 154.253C129.85 153.911 130.876 155.475 131.377 155.047C131.878 154.62 127.797 151.259 126.722 150.832C125.117 150.315 123.418 150.164 121.748 150.392C120.245 150.66 111.117 153.043 108.367 157.528C105.618 162.013 102.648 173.854 103.87 176.555C104.188 177.202 105.092 177.496 105.593 178.424C106.18 179.646 106.669 181.052 107.194 181.883C107.719 182.713 108.172 182.787 108.147 182.506Z" fill="#FB8500"/>
<path d="M112.937 162.086C112.09 161.72 111.272 161.287 110.493 160.791C109.674 160.299 108.919 159.708 108.245 159.031C108.245 159.031 108.111 159.031 108.159 159.104C108.752 159.889 109.465 160.573 110.273 161.133C111.085 161.676 111.994 162.058 112.95 162.257C112.972 162.256 112.993 162.245 113.008 162.228C113.023 162.211 113.031 162.188 113.029 162.166C113.027 162.143 113.017 162.122 113 162.107C112.982 162.092 112.96 162.085 112.937 162.086Z" fill="#263238"/>
<path d="M107.609 179.255C107.475 179.035 107.292 178.852 107.145 178.644C106.972 178.41 106.828 178.156 106.717 177.887C106.566 177.36 106.357 176.852 106.094 176.371C105.823 176.015 105.511 175.691 105.165 175.406C104.751 175.106 104.449 174.676 104.31 174.184H104.212C104.359 175.174 105.129 175.773 105.691 176.53C105.977 177.049 106.214 177.593 106.4 178.155C106.616 178.669 106.993 179.098 107.475 179.377C107.536 179.414 107.646 179.341 107.609 179.255Z" fill="#263238"/>
<path d="M108.172 175.565C107.805 175.247 107.426 174.966 107.084 174.612C106.742 174.257 106.473 173.878 106.192 173.5C105.911 173.121 105.691 172.718 105.422 172.278C105.153 171.838 104.75 171.41 104.457 170.933C104.457 170.933 104.334 170.933 104.371 171.007C104.677 171.483 104.884 172.033 105.165 172.522C105.417 172.946 105.695 173.354 105.996 173.744C106.281 174.123 106.601 174.474 106.95 174.795C107.299 175.131 107.715 175.389 108.172 175.553C108.172 175.553 108.196 175.589 108.172 175.565Z" fill="#263238"/>
<path d="M108.856 172.204C108.081 171.737 107.381 171.156 106.779 170.481C106.192 169.821 105.63 169.125 105.092 168.428C105.092 168.428 104.97 168.428 105.007 168.428C105.406 169.256 105.911 170.028 106.51 170.726C106.8 171.067 107.133 171.371 107.499 171.63C107.897 171.894 108.318 172.119 108.758 172.302C108.758 172.302 108.917 172.302 108.856 172.204Z" fill="#263238"/>
<path d="M109.662 168.954C109.288 168.775 108.952 168.526 108.673 168.221C108.33 167.903 108.001 167.573 107.683 167.231C107.365 166.901 107.047 166.595 106.742 166.265C106.412 165.956 106.15 165.582 105.972 165.166C105.972 165.166 105.862 165.166 105.874 165.166C105.97 165.611 106.167 166.029 106.449 166.388C106.721 166.822 107.032 167.231 107.377 167.61C107.719 167.962 108.082 168.292 108.465 168.599C108.788 168.895 109.192 169.086 109.626 169.149C109.639 169.152 109.652 169.152 109.665 169.149C109.677 169.146 109.689 169.141 109.7 169.134C109.711 169.126 109.72 169.117 109.727 169.106C109.735 169.095 109.739 169.083 109.742 169.07C109.744 169.057 109.744 169.044 109.741 169.031C109.739 169.018 109.734 169.006 109.726 168.995C109.719 168.985 109.709 168.975 109.698 168.968C109.688 168.961 109.675 168.956 109.662 168.954Z" fill="#263238"/>
<path d="M109.98 164.97C109.622 164.726 109.279 164.469 108.954 164.2C108.636 163.919 108.318 163.638 108.013 163.345C107.707 163.051 107.353 162.734 107.047 162.404C107.047 162.404 106.925 162.404 106.962 162.465C107.194 162.85 107.46 163.214 107.756 163.552C108.048 163.883 108.362 164.194 108.697 164.481C109.028 164.77 109.38 165.035 109.748 165.276C110.11 165.552 110.526 165.748 110.97 165.85C110.98 165.843 110.988 165.834 110.994 165.823C111 165.813 111.003 165.801 111.003 165.789C111.003 165.777 111 165.765 110.994 165.754C110.988 165.743 110.98 165.734 110.97 165.728C110.664 165.445 110.333 165.191 109.98 164.97Z" fill="#263238"/>
<path d="M115.149 159.838C114.758 159.495 114.379 159.153 113.927 158.836C113.475 158.518 113.059 158.237 112.595 157.968C111.718 157.43 110.783 156.991 109.809 156.66C109.809 156.66 109.699 156.722 109.809 156.758C111.544 157.834 113.34 158.836 115.076 159.935C115.089 159.945 115.105 159.949 115.121 159.947C115.137 159.945 115.152 159.936 115.161 159.923C115.171 159.91 115.175 159.894 115.173 159.878C115.171 159.862 115.162 159.847 115.149 159.838Z" fill="#263238"/>
<path d="M116.677 156.746C116.299 156.417 115.89 156.126 115.455 155.878C114.49 155.393 113.474 155.02 112.424 154.766C112.351 154.766 112.314 154.84 112.424 154.864C113.365 155.292 114.306 155.707 115.21 156.184C115.65 156.428 116.102 156.673 116.518 156.954C116.933 157.235 117.288 157.614 117.74 157.919C117.469 157.46 117.107 157.06 116.677 156.746Z" fill="#263238"/>
<path d="M119.182 155.047C118.808 154.711 118.398 154.416 117.96 154.168C117.16 153.682 116.284 153.335 115.369 153.141C115.369 153.141 115.284 153.227 115.369 153.251C116.219 153.584 117.037 153.993 117.813 154.473C118.204 154.717 118.595 154.986 119.035 155.255C119.475 155.524 119.78 155.866 120.184 156.086C119.883 155.709 119.548 155.361 119.182 155.047Z" fill="#263238"/>
<path d="M120.88 153.117C120.501 152.897 120.098 152.689 119.658 152.493C119.276 152.279 118.864 152.122 118.436 152.029V152.139L120.66 153.447C121.315 153.9 121.921 154.42 122.469 154.999C122.469 154.999 122.542 154.999 122.469 154.999C122.142 154.225 121.588 153.569 120.88 153.117Z" fill="#263238"/>
<path d="M123.239 152.212C122.516 151.727 121.707 151.383 120.856 151.198C120.795 151.198 120.77 151.284 120.856 151.308C121.652 151.599 122.398 152.011 123.068 152.53C123.746 153.023 124.369 153.588 124.925 154.216C124.925 154.216 125.011 154.216 124.986 154.216C124.576 153.416 123.976 152.728 123.239 152.212Z" fill="#263238"/>
<path d="M128.652 153.031C128.428 152.807 128.191 152.594 127.943 152.396C127.696 152.198 127.434 152.019 127.161 151.858C126.88 151.687 126.599 151.528 126.33 151.345C126.33 151.345 126.208 151.406 126.33 151.442C126.616 151.609 126.886 151.801 127.137 152.017L127.846 152.603L128.567 153.19C128.793 153.41 129.034 153.614 129.288 153.801C129.106 153.521 128.893 153.263 128.652 153.031Z" fill="#263238"/>
<path d="M203.377 129.911C202.868 134.807 201.008 139.466 198.004 143.367C195 147.267 190.971 150.256 186.367 151.999C181.763 153.742 176.765 154.171 171.931 153.237C167.098 152.304 162.619 150.045 158.994 146.713L145.699 148.669L152.347 137.182C150.823 133.445 150.172 129.409 150.441 125.383C150.71 121.356 151.893 117.443 153.901 113.942C155.908 110.441 158.686 107.443 162.025 105.176C165.364 102.909 169.175 101.433 173.17 100.859C177.165 100.285 181.238 100.629 185.08 101.864C188.922 103.099 192.432 105.193 195.343 107.988C198.255 110.782 200.492 114.203 201.884 117.991C203.276 121.779 203.787 125.835 203.377 129.85V129.911Z" fill="white"/>
<path d="M203.377 129.911C202.86 134.8 201.003 139.451 198.013 143.353C196.551 145.324 194.795 147.059 192.807 148.497C190.85 149.987 188.689 151.188 186.392 152.066C184.099 152.963 181.693 153.539 179.243 153.777C178.024 153.879 176.799 153.904 175.577 153.85C174.347 153.81 173.121 153.68 171.911 153.459C167.013 152.561 162.464 150.313 158.774 146.97L159.08 147.068L145.772 149.084L144.807 149.231L145.296 148.387L151.907 136.864V137.328C150.343 133.522 149.674 129.407 149.952 125.301C150.229 121.195 151.446 117.208 153.508 113.646C155.578 110.103 158.423 107.075 161.829 104.787C166.069 101.993 171.013 100.457 176.089 100.356C181.165 100.255 186.166 101.594 190.513 104.218C194.86 106.841 198.376 110.642 200.652 115.181C202.929 119.719 203.873 124.809 203.377 129.862V129.911ZM203.377 129.911C203.802 125.91 203.302 121.866 201.917 118.089C200.532 114.312 198.298 110.903 195.388 108.125C192.478 105.348 188.969 103.275 185.132 102.067C181.295 100.859 177.232 100.547 173.255 101.157C169.307 101.747 165.545 103.231 162.257 105.495C159.009 107.777 156.294 110.738 154.302 114.171C152.348 117.614 151.195 121.452 150.929 125.402C150.689 129.354 151.327 133.31 152.799 136.986L152.897 137.218L152.774 137.438L146.078 148.901L145.613 148.204L158.909 146.335H159.092L159.226 146.457C162.775 149.781 167.181 152.049 171.948 153.007C173.155 153.254 174.381 153.401 175.614 153.447C176.834 153.534 178.059 153.534 179.28 153.447C181.707 153.258 184.097 152.731 186.379 151.882C188.673 151.054 190.831 149.888 192.783 148.424C193.768 147.707 194.707 146.928 195.593 146.09C196.463 145.224 197.279 144.306 198.037 143.341C201.018 139.44 202.866 134.793 203.377 129.911Z" fill="#263238"/>
<path d="M173.842 142.302L162.501 130.815L166.314 127.051L172.937 133.76L186.709 112.167L191.231 115.051L173.842 142.302Z" fill="#FB8500"/>
</svg>
